<svg width="80" height="26" viewBox="0 0 80 26" fill="none" xmlns="http://www.w3.org/2000/svg">
<path fill-rule="evenodd" clip-rule="evenodd" d="M66.3329 7.37008C67.5171 7.37008 68.8715 8.39896 68.8715 9.82048C68.8715 10.5311 68.6515 11.2243 68.2415 11.8047C68.0193 12.1345 67.8506 12.4973 67.7418 12.8798C67.6599 13.2179 67.4814 14.0389 68.4851 14.0514C69.1381 14.0682 70.7423 13.5013 72.0379 11.937C74.4168 8.95341 74.0933 4.64034 71.2959 2.04496C68.4986 -0.550427 64.1734 -0.550427 61.3761 2.04496C58.5788 4.64034 58.2553 8.95341 60.6342 11.937C61.9318 13.4992 63.536 14.0682 64.1869 14.0514C65.1885 14.0368 65.0079 13.2116 64.9303 12.8798C64.8231 12.4967 64.6543 12.1336 64.4305 11.8047C64.021 11.2241 63.801 10.531 63.8006 9.82048C63.8006 8.39896 65.1507 7.37218 66.3413 7.37218L66.3329 7.37008ZM79.2337 14.8011C78.9355 14.5533 78.4106 14.1921 77.3439 14.0263C76.1117 13.8554 74.8562 14.0081 73.7009 14.4693C72.4045 15.0317 71.2818 15.9298 70.4484 17.0709C69.5014 18.3769 69.0121 20.3486 69.4804 22.4042C69.5787 22.8628 69.7443 23.3043 69.9717 23.7144C70.2531 24.2646 70.9922 25.0352 71.6389 25.1843C72.0564 25.2527 72.4786 25.0925 72.7455 24.7643C74.0494 23.2546 78.9922 17.4026 79.5276 16.6572C80.0631 15.9118 79.7103 15.2021 79.2274 14.8011H79.2337ZM55.3387 14.0263C56.5656 13.8589 57.8149 14.0122 58.9649 14.4714L58.9775 14.4693C60.2733 15.0325 61.3959 15.9305 62.23 17.0709C63.1686 18.3769 63.6662 20.3486 63.198 22.4042C63.0979 22.8629 62.931 23.3044 62.7024 23.7144C62.4232 24.2751 61.6862 25.0457 61.0352 25.1843C60.6171 25.2535 60.1939 25.0932 59.9266 24.7643C58.6226 23.2546 53.6883 17.3984 53.1486 16.6572C52.609 15.916 52.9659 15.2021 53.4489 14.8011C53.7345 14.5533 54.2636 14.1921 55.3387 14.0263Z" fill="#117DB8"/>
<path fill-rule="evenodd" clip-rule="evenodd" d="M34.845 8.23937C34.845 7.65355 34.4965 7.36798 33.9736 7.36798H30.4692C30.2319 7.3458 29.9973 7.43138 29.83 7.60109C29.6627 7.7708 29.5805 8.00667 29.6062 8.24357V14.8829L26.2781 8.91339C25.6146 7.81313 24.4975 7.39528 23.1936 7.37008H20.6025C20.3651 7.34653 20.1298 7.43129 19.9619 7.60078C19.794 7.77027 19.7116 8.00643 19.7374 8.24357V15.3428H24.0902L24.76 16.5291H19.7374V23.6263C19.7118 23.8637 19.7942 24.1001 19.9618 24.2702C20.1295 24.4403 20.3647 24.5261 20.6025 24.5039H24.1154C24.6382 24.5039 24.9825 24.2121 24.9825 23.6263V16.9449L28.3421 22.9627C28.9993 24.0567 30.1206 24.4745 31.4161 24.5039H33.9736C34.2123 24.5273 34.4488 24.4422 34.6177 24.272C34.7867 24.1018 34.8701 23.8647 34.845 23.6263V16.5291H30.5238L29.856 15.3428H34.8555L34.845 8.23937ZM14.6392 7.36588C15.1268 7.34106 15.5481 7.7032 15.5967 8.18898L16.8629 15.3386H5.17782C7.01719 12.3885 8.66129 9.75539 8.66129 9.75539C9.56867 8.27369 11.18 7.36906 12.9175 7.36588H14.6392ZM44.1783 19.8215H50.2676V19.811C50.7862 19.811 51.1369 20.0966 51.1369 20.6866V23.6263C51.1614 23.8637 51.0779 24.0995 50.9093 24.2685C50.7407 24.4375 50.5051 24.5216 50.2676 24.4976H37.3962C37.1546 24.5185 36.9162 24.4313 36.7452 24.2595C36.5742 24.0876 36.4881 23.8488 36.5101 23.6074V23.1097C36.5101 22.2278 36.5983 20.9575 37.4991 19.6976L39.9096 16.5312H46.677L44.1783 19.8215ZM11.3007 16.5291H17.0707L18.3033 23.4982C18.3665 23.7317 18.326 23.9812 18.192 24.1827C18.0236 24.4059 17.7525 24.5272 17.4739 24.5039H13.5033C13.0098 24.5039 12.6739 24.2268 12.5752 23.6871C12.5533 23.566 12.4103 22.7612 12.2269 21.729L12.2259 21.7232L12.2256 21.7214C11.8816 19.7853 11.3964 17.0544 11.3007 16.5291ZM0.125853 23.431C-0.0168196 23.6501 -0.0397035 23.9263 0.0649607 24.1659C0.194533 24.3884 0.437734 24.5198 0.694882 24.506H4.81247C5.31971 24.5031 5.78958 24.2388 6.05551 23.8068L10.6077 16.5291H4.43451C3.27531 18.3825 2.11486 20.244 1.29063 21.5661L1.29032 21.5666L1.28998 21.5671C0.603682 22.668 0.150656 23.3947 0.125853 23.431ZM43.3133 12.0441H37.5117V12.0504C37.2746 12.0752 37.0389 11.9916 36.8706 11.8228C36.7022 11.654 36.6191 11.4182 36.6445 11.1811V8.24147C36.6445 7.65565 36.993 7.37008 37.5117 7.37008H50.0996C50.342 7.34956 50.581 7.43789 50.7518 7.61113C50.9226 7.78436 51.0075 8.02457 50.9836 8.26667V9.39633C50.9917 10.3765 50.66 11.3292 50.045 12.0924L47.5778 15.3386H40.8125L43.3133 12.0441Z" fill="#117DB8"/>
</svg>
