<svg width="80" height="22" viewBox="0 0 80 22" fill="none" xmlns="http://www.w3.org/2000/svg">
<path d="M7.18044 0L3.59033 3.59551L7.18044 7.19101V0Z" fill="#4C579D"/>
<path d="M0 7.19101L3.59011 3.59551L0 0V7.19101Z" fill="#4C579D"/>
<path d="M7.18022 7.19103L3.59011 3.59552L0 7.19103H7.18022Z" fill="#1B144D"/>
<path d="M0 0L3.59011 3.59551L7.18022 0H0Z" fill="#7D81BE"/>
<path d="M14.3588 0L10.7705 3.59551L14.3588 7.19101V0Z" fill="#19114A"/>
<path d="M7.18018 7.19101L10.7703 3.59551L7.18018 0V7.19101Z" fill="#ADB0D8"/>
<path d="M14.3586 7.19103L10.7703 3.59552L7.18018 7.19103H14.3586Z" fill="#4C579D"/>
<path d="M7.18018 0L10.7703 3.59551L14.3586 0H7.18018Z" fill="#4C579D"/>
<path d="M7.18044 7.19101L3.59033 10.7865L7.18044 14.382V7.19101Z" fill="#1B144D"/>
<path d="M0 14.382L3.59011 10.7865L0 7.19101V14.382Z" fill="#4C579D"/>
<path d="M7.18022 14.382L3.59011 10.7865L0 14.382H7.18022Z" fill="#7D81BE"/>
<path d="M0 7.19101L3.59011 10.7865L7.18022 7.19101H0Z" fill="#ADB0D8"/>
<path d="M14.3588 7.19101L10.7705 10.7865L14.3588 14.382V7.19101Z" fill="#4C579D"/>
<path d="M7.18018 14.382L10.7703 10.7865L7.18018 7.19101V14.382Z" fill="#ADB0D8"/>
<path d="M14.3586 14.382L10.7703 10.7865L7.18018 14.382H14.3586Z" fill="#1B144D"/>
<path d="M7.18018 7.19101L10.7703 10.7865L14.3586 7.19101H7.18018Z" fill="#7A7EBB"/>
<path d="M7.18044 14.382L3.59033 17.9775L7.18044 21.573V14.382Z" fill="#1B144D"/>
<path d="M0 14.382L3.59011 17.9775L7.18022 14.382H0Z" fill="#ADB0D8"/>
<path d="M7.18018 21.573L10.7703 17.9775L7.18018 14.382V21.573Z" fill="#ACAFD8"/>
<path d="M7.18018 14.382L10.7703 17.9775L14.3586 14.382H7.18018Z" fill="#4C579D"/>
<path fill-rule="evenodd" clip-rule="evenodd" d="M18.2168 8.92404H18.7453C18.9525 8.89545 19.1134 8.7293 19.1354 8.52135V2.1573C19.119 1.94448 18.9567 1.77176 18.7453 1.74202H18.2168V0.945618H21.7224C23.682 0.945618 24.8757 1.58742 24.8757 3.17303C24.8757 4.30562 24.1979 4.85933 23.1049 5.08584V5.1236C24.4119 5.30337 25.2622 5.95416 25.2622 7.25034C25.2622 8.9618 23.9049 9.75461 21.8698 9.75461H18.2168V8.92404ZM21.6721 4.73348C22.8406 4.73348 23.4195 4.30562 23.4195 3.27371C23.4195 2.19506 22.8424 1.83551 21.6847 1.83551H20.5916V4.72989L21.6721 4.73348ZM23.7323 7.18202C23.7323 8.30202 23.1678 8.86831 21.8231 8.86831L20.5916 8.87371V5.58382H21.7728C23.193 5.58382 23.7323 6.06202 23.7323 7.18202Z" fill="#221E52"/>
<path fill-rule="evenodd" clip-rule="evenodd" d="M28.5447 5.86608C27.022 5.86608 25.9434 6.50787 25.9434 7.86697C25.9434 9.16855 26.8243 9.83012 28.0773 9.83012C28.9564 9.83012 29.5964 9.53529 30.0872 8.93124C30.1879 9.54068 30.5618 9.83012 31.2809 9.83012C31.5868 9.84388 31.8906 9.77429 32.16 9.62877V8.94922H31.8202C31.7099 8.95961 31.6007 8.92081 31.5216 8.84317C31.4426 8.76553 31.4019 8.65698 31.4103 8.54653V5.03012C31.4103 3.57035 30.5061 3.07956 28.96 3.07956C27.7537 3.07956 26.9501 3.31866 26.3838 3.59551V4.6454H27.0112C27.4767 4.22112 28.0918 3.99929 28.7209 4.02877C29.5622 4.02877 30.053 4.3308 30.053 5.17394V6.04585C29.5598 5.92277 29.053 5.86237 28.5447 5.86608ZM30.053 6.78832V8.22653V8.23192C29.6503 8.65978 29.1991 8.96181 28.507 8.95282C27.7411 8.95282 27.2881 8.63821 27.2881 7.82023C27.2881 7.00226 27.867 6.66248 28.8216 6.66248C29.2352 6.6637 29.6477 6.70585 30.053 6.78832Z" fill="#221E52"/>
<path d="M32.6906 8.94924H33.1814C33.3618 8.93267 33.5046 8.7898 33.5212 8.60946V4.36856C33.5042 4.18479 33.3639 4.03637 33.1814 4.00901H32.6421V3.16047H34.5639C34.7437 3.16047 34.8911 3.34025 34.8785 3.96587V4.14564C35.5793 3.4827 36.5027 3.10567 37.4673 3.08856C38.4093 3.08856 39.1895 3.42834 39.1895 4.72452V8.60946C39.1987 8.78843 39.3382 8.93334 39.5167 8.94924H39.932V9.75463H36.9261V8.94924H37.825V5.17396C37.825 4.35598 37.4655 4.15463 36.7949 4.15463C36.092 4.15463 35.4376 4.44407 34.8731 4.78384V8.94924H35.79V9.75463H32.6906V8.94924Z" fill="#221E52"/>
<path d="M40.4674 8.94921H40.9582C41.1386 8.93264 41.2814 8.78978 41.298 8.60944V2.12854C41.281 1.94477 41.1407 1.79634 40.9582 1.76899H40.4297V0.945618H42.4072C42.5708 0.945618 42.6589 1.05888 42.6589 1.28539V6.60854L44.7443 4.4818C44.9241 4.28045 44.8576 4.01618 44.6185 4.01618H44.3164V3.16045H47.0436V4.01618H46.7164C46.5066 4.0366 46.3106 4.13015 46.1627 4.28045L44.5286 5.9164L46.3623 8.5591C46.542 8.81079 46.7398 8.94921 46.916 8.94921H47.0958V9.75461H45.5874L43.6099 6.82247L42.6553 7.76629V8.94921H43.4841V9.75461H40.4674V8.94921Z" fill="#221E52"/>
<path fill-rule="evenodd" clip-rule="evenodd" d="M53.3321 3.08496C51.4481 3.08496 49.9775 4.36856 49.9775 6.48271C49.9775 8.5717 51.4355 9.83013 53.3321 9.83013C55.2288 9.83013 56.6868 8.59687 56.6868 6.48271C56.6868 4.36856 55.2162 3.08496 53.3321 3.08496ZM53.3339 4.00361C54.4773 4.00361 55.2809 4.85934 55.2809 6.4953C55.2809 8.10608 54.4773 8.94923 53.3339 8.94923C52.1906 8.94923 51.387 8.13665 51.387 6.4953C51.387 4.85395 52.1906 4.00361 53.3339 4.00361Z" fill="#221E52"/>
<path d="M57.3163 8.94923H57.7819C57.9696 8.94121 58.1228 8.79639 58.1414 8.60945V4.01619H57.2749V3.16046H58.1414V2.59417C58.1414 1.36091 58.8947 0.844957 60.0632 0.844957C60.4128 0.834918 60.7614 0.886024 61.0933 0.995968V1.77619H60.4587C59.8816 1.77619 59.4915 1.90204 59.4915 2.63192V3.16046H60.874V4.01619H59.4915V8.60945C59.5014 8.79287 59.6479 8.93939 59.8313 8.94923H60.4713V9.75462H57.3163V8.94923Z" fill="#221E52"/>
<path d="M18.2168 19.8346H18.7328C18.9422 19.8105 19.1054 19.642 19.1229 19.4319V13.0769C19.1105 12.8623 18.9462 12.6873 18.7328 12.6616H18.2168V11.831H21.4078L23.4806 18.4126H23.5184L25.6182 11.831H28.7642V12.6616H28.2357C28.0223 12.6873 27.858 12.8623 27.8456 13.0769V19.4319C27.863 19.642 28.0263 19.8105 28.2357 19.8346H28.7642V20.64H25.4168V19.8346H26.3966V12.8H26.3085L23.8078 20.64H22.7903L20.3022 12.8H20.2267V19.8346H21.2137V20.64H18.2114L18.2168 19.8346Z" fill="#221E52"/>
<path fill-rule="evenodd" clip-rule="evenodd" d="M32.4389 13.9703C30.5297 13.9703 29.2354 15.2791 29.2354 17.3681C29.2354 19.4319 30.3661 20.7155 32.5774 20.7155C33.8951 20.7155 34.6376 20.3757 35.1536 20.036V19.1047H34.3751C34.0354 19.52 33.6075 19.8472 32.678 19.8472C31.3747 19.8472 30.7059 19.0921 30.6556 17.5569H35.3423C35.3423 17.5372 35.3439 17.5034 35.3459 17.4594C35.3496 17.3786 35.3549 17.2639 35.3549 17.1416C35.3549 14.9393 34.2852 13.9703 32.4389 13.9703ZM32.4318 14.8135C33.3882 14.8135 33.9275 15.342 33.9778 16.7389H30.6718C30.7976 15.4427 31.4394 14.8135 32.4318 14.8135Z" fill="#221E52"/>
<path d="M35.7755 19.8346H36.2537C36.4414 19.8266 36.5947 19.6818 36.6133 19.4948V13.0139C36.5945 12.8237 36.444 12.6732 36.2537 12.6544H35.7378V11.831H37.7153C37.8951 11.831 37.967 11.9443 37.967 12.1708V19.4948C37.9768 19.6783 38.1234 19.8248 38.3068 19.8346H38.7976V20.64H35.7755V19.8346Z" fill="#221E52"/>
<path fill-rule="evenodd" clip-rule="evenodd" d="M40.3293 20.6472C40.4857 20.6472 40.732 20.3704 40.8453 19.9551C41.2857 20.4009 41.8502 20.7155 42.9019 20.7137C44.2952 20.7137 45.7783 19.8328 45.7783 17.253C45.7783 14.7488 44.5055 13.9686 43.2614 13.9686C42.3723 13.9665 41.5289 14.3622 40.9621 15.0472V12.1708C40.9621 11.9443 40.874 11.831 40.7104 11.831H38.7329V12.6544H39.2614C39.444 12.6817 39.5842 12.8302 39.6012 13.0139V20.6472H40.3293ZM42.6412 14.9717C43.5593 14.9717 44.375 15.4367 44.3761 17.3717C44.375 19.4163 43.4209 19.8975 42.528 19.9029C41.9401 19.9319 41.368 19.7074 40.9567 19.2863V15.6908C41.4098 15.3312 42.0012 14.9717 42.6412 14.9717ZM44.3761 17.3717C44.3761 17.3729 44.3761 17.3741 44.3761 17.3753V17.3681C44.3761 17.3693 44.3761 17.3705 44.3761 17.3717Z" fill="#221E52"/>
<path fill-rule="evenodd" clip-rule="evenodd" d="M49.6901 13.9703C47.806 13.9703 46.3354 15.2539 46.3354 17.3681C46.3354 19.4571 47.7934 20.7155 49.6901 20.7155C51.5867 20.7155 53.0447 19.4822 53.0447 17.3681C53.0447 15.2539 51.5741 13.9703 49.6901 13.9703ZM49.6919 14.889C50.8352 14.889 51.6388 15.7447 51.6388 17.3807C51.6388 18.9915 50.8352 19.8346 49.6919 19.8346C48.5485 19.8346 47.7449 19.0166 47.7449 17.3807C47.7449 15.7447 48.5485 14.889 49.6919 14.889Z" fill="#221E52"/>
<path d="M54.2635 19.0922V15.2414C54.2476 15.0641 54.1095 14.9222 53.9327 14.9016H53.4419V14.0459H55.628V18.6643C55.628 19.52 56.0684 19.7429 56.6832 19.7429C57.361 19.7429 58.028 19.4409 58.5547 19.0886V14.9016H57.6127V14.0459H59.912V19.4823C59.9266 19.6745 60.0793 19.8273 60.2716 19.8418H60.7641V20.6472H58.8621C58.6823 20.6472 58.5601 20.4962 58.5601 19.8796V19.716C57.8774 20.3709 56.9677 20.7362 56.0217 20.7353C55.1066 20.7281 54.2635 20.3632 54.2635 19.0922Z" fill="#221E52"/>
<path d="M61.111 19.8346H61.6018C61.7822 19.818 61.925 19.6752 61.9416 19.4948V15.2539C61.9246 15.0702 61.7843 14.9217 61.6018 14.8944H61.0625V14.0459H62.9843C63.1641 14.0459 63.2989 14.2094 63.2989 14.9267V15.1407C63.7645 14.5492 64.3416 13.9955 65.2585 13.9955C65.3859 13.9964 65.5128 14.0133 65.636 14.0459V15.1659H65.3717C64.3668 15.1659 63.7879 15.405 63.2989 15.8328V19.8346H64.3416V20.64H61.1056L61.111 19.8346Z" fill="#221E52"/>
<path d="M66.0243 19.8346H66.5169C66.6972 19.818 66.8401 19.6752 66.8566 19.4948V15.2539C66.8396 15.0702 66.6994 14.9217 66.5169 14.8944H65.9775V14.0458H67.8993C68.0791 14.0458 68.2265 14.2256 68.2139 14.8512V15.031C68.9148 14.3681 69.8381 13.991 70.8027 13.9739C71.7447 13.9739 72.525 14.3137 72.525 15.6099V19.4984C72.5341 19.6774 72.6736 19.8223 72.8521 19.8382H73.2674V20.6436H70.2652V19.8382H71.1641V16.0629C71.1641 15.2449 70.8045 15.0436 70.1339 15.0436C69.431 15.0436 68.7766 15.333 68.2121 15.6728V19.8382H69.129V20.6436H66.0243V19.8346Z" fill="#221E52"/>
<path fill-rule="evenodd" clip-rule="evenodd" d="M76.9116 13.9703C75.0024 13.9703 73.708 15.2791 73.708 17.3681C73.708 19.4319 74.8316 20.7155 77.0428 20.7155C78.3606 20.7155 79.1031 20.3757 79.619 20.036V19.1047H78.8406C78.5008 19.52 78.073 19.8472 77.1435 19.8472C75.8401 19.8472 75.1714 19.0921 75.121 17.5569H79.815C79.815 17.5372 79.8165 17.5034 79.8186 17.4594C79.8223 17.3786 79.8276 17.2639 79.8276 17.1416C79.8276 14.9393 78.7579 13.9703 76.9116 13.9703ZM76.9116 14.8135C77.868 14.8135 78.4073 15.342 78.4577 16.7389H75.1516C75.2774 15.4427 75.9192 14.8135 76.9116 14.8135Z" fill="#221E52"/>
</svg>
