<svg xmlns="http://www.w3.org/2000/svg" xmlns:xlink="http://www.w3.org/1999/xlink" width="1013" height="672" viewBox="0 0 1013 672">
    <defs>
        <path id="a" d="M0 0h1014v672H0z"/>
        <filter id="b" width="118.6%" height="127.9%" x="-9.3%" y="-13.9%" filterUnits="objectBoundingBox">
            <feOffset dy="49" in="SourceAlpha" result="shadowOffsetOuter1"/>
            <feColorMatrix in="shadowOffsetOuter1" result="shadowMatrixOuter1" values="0 0 0 0 0 0 0 0 0 0 0 0 0 0 0 0 0 0 0.15196132 0"/>
            <feMerge>
                <feMergeNode in="shadowMatrixOuter1"/>
                <feMergeNode in="SourceGraphic"/>
            </feMerge>
        </filter>
    </defs>
    <g fill="none" fill-rule="evenodd">
        <mask id="c" fill="#fff">
            <use xlink:href="#a"/>
        </mask>
        <g fill-rule="nonzero" filter="url(#b)" mask="url(#c)">
            <path fill="#272727" d="M819.06 55.344v-5.09l-1.224 1.23c-.918-1.415-2.345-2.746-4.316-3.885L653.995-44.635c-7.388-4.273-19.36-4.273-26.746 0L348.54 116.49c-1.774 1.025-3.11 2.206-4.032 3.463l-1.5-.682v4.863c-.04 2.825 1.8 5.662 5.53 7.818l159.527 92.24c7.385 4.27 19.36 4.27 26.746 0L813.52 63.067c3.66-2.117 5.5-4.885 5.535-7.657h.005v-.066z"/>
            <path fill="#666" d="M348.541 111.33L627.248-49.795c7.386-4.273 19.362-4.273 26.747 0L813.52 42.442c7.386 4.27 7.388 11.194.003 15.465L534.812 219.03c-7.386 4.273-19.361 4.27-26.747 0l-159.524-92.235c-7.388-4.27-7.388-11.194 0-15.465"/>
            <path fill="#B7B7B7" d="M813.52 53.878L534.814 215.004c-7.388 4.273-19.363 4.273-26.749 0L348.54 122.766c-2.803-1.618-4.535-3.624-5.211-5.717-1.106 3.424.629 7.096 5.211 9.745l159.524 92.237c7.386 4.27 19.361 4.27 26.75 0L813.52 57.905c4.582-2.649 6.314-6.32 5.211-9.744-.676 2.093-2.41 4.096-5.211 5.717"/>
            <path fill="#B7B7B7" d="M489.29 153.72l30.013-17.352c3.543-2.048 3.098-5.625-.992-7.99l-17.158-9.918c-4.088-2.365-10.273-2.623-13.813-.575l-30.013 17.355c-3.543 2.045-3.098 5.622.99 7.986l17.158 9.922c4.09 2.364 10.275 2.62 13.815.572M414.105 104.035c.858.211 1.719.57 2.58 1.076 2.229 1.296 2.59 2.535 1.081 3.71 1.277-.5 2.543-.692 3.803-.576 1.264.118 2.559.558 3.893 1.323 1.727.988 2.603 1.993 2.63 3.01.026 1.02-.793 2.009-2.456 2.968l-5.204 3.01-18.124-10.48 4.438-2.567c.84-.485 1.642-.865 2.416-1.136a10.008 10.008 0 0 1 2.406-.533 7.582 7.582 0 0 1 2.537.195zm2.26 7.149l-1.036.603 6.077 3.514 1.214-.704c.984-.567 1.437-1.094 1.355-1.579-.079-.485-.647-1.033-1.705-1.642-1.093-.633-2.098-.967-3.017-1.007-.918-.037-1.882.235-2.887.815zm4.54-13.861l21.798 8.358-3.072 1.777-4.943-2.012-3.137 1.814 3.466 2.862-3.116 1.803-14.442-12.61 3.446-1.992zm-9.798 8.8a5.288 5.288 0 0 0-1.263.364c-.395.168-.882.421-1.458.753l-.461.267L413 110.44l1.026-.595c.969-.56 1.43-1.065 1.38-1.519-.053-.448-.57-.96-1.554-1.528-.51-.293-.984-.499-1.421-.612a3.161 3.161 0 0 0-1.324-.063zm12.409-5.316l6.232 5.006 2.427-1.405-8.66-3.6zm12.289-12.1l18.124 10.48-2.163 1.253-15.274-3.648 10.791 6.239-2.798 1.618-18.126-10.48 2.274-1.315 14.702 3.368-10.265-5.936 2.735-1.578zm12.725-7.358l4.645 6.696 13.842 3.576-3.293 1.904-11.652-3.124.524 1.062 7.346 4.25-3.3 1.908-18.127-10.48 3.303-1.912 7.87 4.553-4.306-6.611 3.148-1.822zM550.88 182.356c1.052.608 1.208 1.514.386 2.074l-.118.074-10.267 5.936c-.953.551-2.617.483-3.717-.155-1.052-.608-1.206-1.515-.384-2.074l.118-.074 10.265-5.936c.956-.551 2.616-.483 3.717.155zm6.148-5.856c.953-.551 2.616-.485 3.714.15 1.1.638 1.221 1.6.268 2.151l-4.116 2.38c-.953.551-2.616.483-3.717-.155-1.1-.636-1.218-1.598-.265-2.149zm7.327-28.04c1.514.876 1.565 2.272.152 3.183l-.152.093-26.273 15.193-2.263 1.307-18.514 10.704c-1.566.905-4.103.905-5.67 0-1.513-.874-1.561-2.272-.15-3.183l.15-.093 18.517-10.704 2.264-1.308 26.273-15.193c1.566-.904 4.1-.904 5.666 0zm61.09-35.579c1.515.874 1.565 2.275.152 3.185l-.151.092-26.273 15.19-2.264 1.31-18.513 10.705c-1.566.906-4.104.906-5.67 0-1.513-.874-1.561-2.273-.15-3.184l.15-.093 18.517-10.704 2.263-1.31 26.273-15.19c1.566-.905 4.1-.905 5.667 0zm61.091-35.578c1.514.874 1.564 2.273.151 3.184l-.15.093-26.274 15.19L658 97.08l-18.517 10.705c-1.563.904-4.103.904-5.666 0-1.514-.874-1.562-2.275-.151-3.184l.15-.093 18.517-10.704 2.264-1.31 26.272-15.19c1.566-.907 4.101-.907 5.667 0zm61.09-35.579c1.514.874 1.565 2.275.152 3.184l-.151.093-26.273 15.19-2.264 1.31-18.516 10.705c-1.563.906-4.103.906-5.667 0-1.514-.874-1.564-2.273-.151-3.184l.151-.093 18.514-10.704 2.266-1.31 26.273-15.19c1.566-.905 4.1-.905 5.667 0zM579.038 18.609c1.563-.904 4.1-.904 5.667 0 1.563.904 1.566 2.372 0 3.276l-13.431 7.765-2.264 1.31-1.935 1.126c-1.566.904-4.103.904-5.669 0-1.563-.907-1.563-2.372 0-3.276l1.937-1.126 2.264-1.31zm46.65-27.417c1.564-.904 4.1-.904 5.667 0 1.563.904 1.566 2.372 0 3.277l-13.431 7.765-2.264 1.31-18.516 10.707c-1.563.901-4.1.901-5.664 0-1.566-.907-1.566-2.372 0-3.28L609.993.269l2.264-1.31z"/>
            <g>
                <path fill="#272727" d="M580.5 450.94v-5.09l-1.224 1.23c-.919-1.415-2.345-2.746-4.317-3.885L415.435 350.96c-7.388-4.272-19.36-4.272-26.746 0L109.98 512.086c-1.774 1.026-3.11 2.207-4.032 3.464l-1.5-.683v4.863c-.04 2.826 1.8 5.662 5.53 7.818l159.526 92.24c7.386 4.27 19.362 4.27 26.747 0l278.707-161.126c3.662-2.116 5.501-4.884 5.536-7.657h.005v-.066z"/>
                <path fill="#666" d="M109.98 506.926L388.689 345.8c7.386-4.273 19.362-4.273 26.747 0l159.524 92.237c7.386 4.27 7.388 11.195.003 15.465l-278.71 161.123c-7.386 4.273-19.361 4.27-26.747 0l-159.524-92.234c-7.388-4.27-7.388-11.195 0-15.465"/>
                <path fill="#B7B7B7" d="M574.96 449.473L296.254 610.6c-7.388 4.273-19.363 4.273-26.749 0L109.98 518.362c-2.803-1.618-4.535-3.624-5.212-5.717-1.105 3.424.63 7.096 5.212 9.745l159.524 92.237c7.386 4.27 19.361 4.27 26.75 0L574.96 453.5c4.582-2.649 6.314-6.32 5.211-9.745-.676 2.093-2.41 4.096-5.211 5.717"/>
                <path fill="#B7B7B7" d="M250.73 549.315l30.013-17.352c3.543-2.048 3.098-5.624-.992-7.989l-17.158-9.919c-4.088-2.364-10.273-2.622-13.813-.574l-30.013 17.354c-3.543 2.046-3.098 5.623.99 7.987l17.158 9.921c4.09 2.365 10.275 2.62 13.815.572M175.545 499.63c.858.212 1.719.57 2.58 1.076 2.229 1.297 2.59 2.536 1.081 3.711 1.277-.5 2.543-.693 3.803-.577 1.264.119 2.559.559 3.893 1.323 1.727.989 2.603 1.993 2.63 3.01.026 1.02-.793 2.01-2.456 2.969l-5.204 3.01-18.124-10.48 4.438-2.568c.84-.485 1.642-.864 2.416-1.136a10.008 10.008 0 0 1 2.406-.532 7.582 7.582 0 0 1 2.537.195zm2.26 7.15l-1.036.603 6.077 3.513 1.213-.703c.985-.567 1.438-1.094 1.356-1.58-.079-.484-.648-1.032-1.706-1.641-1.092-.633-2.097-.968-3.016-1.007-.918-.037-1.882.234-2.887.814zm4.54-13.862l21.798 8.359-3.072 1.776-4.943-2.011-3.137 1.813 3.466 2.863-3.116 1.803-14.442-12.61 3.445-1.993zm-9.798 8.8a5.288 5.288 0 0 0-1.263.364c-.395.169-.882.422-1.459.754l-.46.266 5.074 2.934 1.027-.596c.968-.559 1.43-1.065 1.38-1.518-.054-.448-.57-.96-1.554-1.529-.51-.292-.984-.498-1.421-.611a3.161 3.161 0 0 0-1.324-.064zm12.408-5.315l6.233 5.005 2.427-1.405-8.66-3.6zm12.29-12.1l18.124 10.48-2.164 1.252-15.273-3.648 10.791 6.24-2.798 1.618-18.127-10.48 2.275-1.316 14.702 3.369-10.265-5.936 2.735-1.579zm12.725-7.358l4.645 6.695 13.842 3.577-3.293 1.903-11.652-3.123.524 1.062 7.346 4.249-3.3 1.908-18.127-10.48 3.303-1.91 7.87 4.551-4.306-6.61 3.148-1.822zM312.32 577.952c1.052.607 1.208 1.514.386 2.074l-.118.074-10.268 5.936c-.952.55-2.616.482-3.716-.156-1.052-.607-1.206-1.514-.384-2.074l.118-.074 10.265-5.936c.955-.55 2.616-.482 3.716.156zm6.148-5.857c.953-.55 2.616-.485 3.714.15 1.1.639 1.22 1.6.268 2.152l-4.116 2.38c-.953.55-2.617.482-3.717-.156-1.1-.635-1.218-1.597-.266-2.148zm7.327-28.04c1.514.876 1.564 2.273.152 3.184l-.152.092-26.273 15.193-2.263 1.308-18.514 10.704c-1.566.904-4.103.904-5.67 0-1.513-.874-1.561-2.273-.15-3.184l.15-.092 18.517-10.705 2.264-1.307 26.272-15.193c1.566-.904 4.101-.904 5.667 0zm61.09-35.578c1.515.874 1.565 2.275.152 3.184l-.151.092-26.273 15.191-2.264 1.31-18.513 10.704c-1.566.907-4.104.907-5.67 0-1.514-.874-1.562-2.272-.15-3.184l.15-.092 18.517-10.704 2.263-1.31 26.273-15.191c1.566-.904 4.1-.904 5.667 0zm61.091-35.578c1.514.874 1.564 2.273.151 3.184l-.151.092-26.273 15.19-2.263 1.311-18.517 10.704c-1.563.904-4.103.904-5.666 0-1.514-.874-1.562-2.275-.152-3.184l.152-.092 18.516-10.704 2.263-1.31 26.273-15.191c1.566-.907 4.1-.907 5.667 0zm61.09-35.58c1.514.875 1.565 2.276.152 3.185l-.152.092-26.272 15.19-2.264 1.31-18.516 10.705c-1.564.907-4.103.907-5.667 0-1.514-.874-1.564-2.272-.151-3.184l.151-.092 18.514-10.704 2.266-1.31L503.4 437.32c1.566-.904 4.1-.904 5.666 0zM340.478 414.204c1.563-.904 4.1-.904 5.667 0 1.563.904 1.566 2.373 0 3.277l-13.432 7.765-2.263 1.31-1.935 1.126c-1.566.904-4.103.904-5.669 0-1.563-.907-1.563-2.373 0-3.277l1.937-1.125 2.264-1.31zm46.65-27.416c1.564-.904 4.1-.904 5.667 0 1.563.904 1.566 2.372 0 3.276l-13.431 7.765-2.264 1.31-18.516 10.707c-1.564.902-4.1.902-5.664 0-1.566-.906-1.566-2.372 0-3.279l18.513-10.704 2.264-1.31z"/>
            </g>
            <g>
                <path fill="#8B8B8B" d="M476.06 252.344v-5.09l-1.224 1.23c-.918-1.415-2.345-2.746-4.316-3.885l-159.525-92.234c-7.388-4.273-19.36-4.273-26.746 0L5.54 313.49c-1.774 1.025-3.11 2.206-4.032 3.463l-1.5-.682v4.863c-.04 2.825 1.8 5.662 5.53 7.818l159.527 92.24c7.385 4.27 19.36 4.27 26.746 0L470.52 260.067c3.66-2.117 5.5-4.885 5.535-7.657h.005v-.066z"/>
                <path fill="#DDD" d="M5.541 308.33l278.707-161.125c7.386-4.273 19.362-4.273 26.747 0l159.524 92.237c7.386 4.27 7.388 11.194.003 15.465L191.812 416.03c-7.386 4.273-19.361 4.27-26.747 0L5.541 323.795c-7.388-4.27-7.388-11.194 0-15.465"/>
                <path fill="#B7B7B7" d="M470.52 250.878L191.814 412.004c-7.388 4.273-19.363 4.273-26.749 0L5.54 319.766c-2.803-1.618-4.535-3.624-5.211-5.717-1.106 3.424.629 7.096 5.211 9.745l159.524 92.237c7.386 4.27 19.361 4.27 26.75 0L470.52 254.905c4.582-2.649 6.314-6.32 5.211-9.744-.676 2.093-2.41 4.096-5.211 5.717"/>
                <path fill="#B7B7B7" d="M146.29 350.72l30.013-17.352c3.543-2.048 3.098-5.625-.992-7.99l-17.158-9.918c-4.088-2.365-10.273-2.623-13.813-.575l-30.013 17.355c-3.543 2.045-3.098 5.622.99 7.986l17.158 9.922c4.09 2.364 10.275 2.62 13.815.572M71.105 301.035c.858.211 1.719.57 2.58 1.076 2.229 1.296 2.59 2.535 1.081 3.71 1.277-.5 2.543-.692 3.803-.576 1.264.118 2.559.558 3.893 1.323 1.727.988 2.603 1.993 2.63 3.01.026 1.02-.793 2.009-2.456 2.968l-5.204 3.01-18.124-10.48 4.438-2.567c.84-.485 1.642-.865 2.416-1.136a10.008 10.008 0 0 1 2.406-.533 7.582 7.582 0 0 1 2.537.195zm2.26 7.149l-1.036.603 6.077 3.514 1.214-.704c.984-.567 1.437-1.094 1.355-1.579-.079-.485-.647-1.033-1.705-1.642-1.093-.633-2.098-.967-3.017-1.007-.918-.037-1.882.235-2.887.815zm4.54-13.861l21.798 8.358-3.072 1.777-4.943-2.012-3.137 1.814 3.466 2.862-3.116 1.803-14.442-12.61 3.446-1.992zm-9.798 8.8a5.288 5.288 0 0 0-1.263.364c-.395.168-.882.421-1.458.753l-.461.267L70 307.44l1.026-.595c.969-.56 1.43-1.065 1.38-1.519-.053-.448-.57-.96-1.554-1.528-.51-.293-.984-.499-1.421-.612a3.161 3.161 0 0 0-1.324-.063zm12.409-5.316l6.232 5.006 2.427-1.405-8.66-3.6zm12.289-12.1l18.124 10.48-2.163 1.253-15.274-3.648 10.791 6.239-2.798 1.618-18.126-10.48 2.274-1.315 14.702 3.368-10.265-5.936 2.735-1.578zm12.725-7.358l4.645 6.696 13.842 3.576-3.293 1.904-11.652-3.124.524 1.062 7.346 4.25-3.3 1.908-18.127-10.48 3.303-1.912 7.87 4.553-4.306-6.611 3.148-1.822zM207.88 379.356c1.052.608 1.208 1.514.386 2.074l-.118.074-10.267 5.936c-.953.551-2.617.483-3.717-.155-1.052-.608-1.206-1.515-.384-2.074l.118-.074 10.265-5.936c.956-.551 2.616-.483 3.717.155zm6.148-5.856c.953-.551 2.616-.485 3.714.15 1.1.638 1.221 1.6.268 2.151l-4.116 2.38c-.953.551-2.616.483-3.717-.155-1.1-.636-1.218-1.598-.265-2.149zm7.327-28.04c1.514.876 1.565 2.272.152 3.183l-.152.093-26.273 15.193-2.263 1.307-18.514 10.704c-1.566.905-4.103.905-5.67 0-1.513-.874-1.561-2.272-.15-3.183l.15-.093 18.517-10.704 2.264-1.308 26.273-15.193c1.566-.904 4.1-.904 5.666 0zm61.09-35.579c1.515.874 1.565 2.275.152 3.185l-.151.092-26.273 15.19-2.264 1.31-18.513 10.705c-1.566.906-4.104.906-5.67 0-1.513-.874-1.561-2.273-.15-3.184l.15-.093 18.517-10.704 2.263-1.31 26.273-15.19c1.566-.905 4.1-.905 5.667 0zm61.091-35.578c1.514.874 1.564 2.273.151 3.184l-.15.093-26.274 15.19-2.263 1.31-18.517 10.705c-1.563.904-4.103.904-5.666 0-1.514-.874-1.562-2.275-.151-3.184l.15-.093 18.517-10.704 2.264-1.31 26.272-15.19c1.566-.907 4.101-.907 5.667 0zm61.09-35.579c1.514.874 1.565 2.275.152 3.184l-.151.093-26.273 15.19-2.264 1.31-18.516 10.705c-1.563.906-4.103.906-5.667 0-1.514-.874-1.564-2.273-.151-3.184l.151-.093 18.514-10.704 2.266-1.31 26.273-15.19c1.566-.905 4.1-.905 5.667 0zM236.038 215.609c1.563-.904 4.1-.904 5.667 0 1.563.904 1.566 2.372 0 3.276l-13.431 7.765-2.264 1.31-1.935 1.126c-1.566.904-4.103.904-5.669 0-1.563-.907-1.563-2.372 0-3.276l1.937-1.126 2.264-1.31zm46.65-27.417c1.564-.904 4.1-.904 5.667 0 1.563.904 1.566 2.372 0 3.277l-13.431 7.765-2.264 1.31-18.516 10.707c-1.563.901-4.1.901-5.664 0-1.566-.907-1.566-2.372 0-3.28l18.513-10.703 2.264-1.31z"/>
            </g>
            <g>
                <path fill="#8B8B8B" d="M919.06 251.344v-5.09l-1.224 1.23c-.918-1.415-2.345-2.746-4.316-3.885l-159.525-92.234c-7.388-4.273-19.36-4.273-26.746 0L448.54 312.49c-1.774 1.025-3.11 2.206-4.032 3.463l-1.5-.682v4.863c-.04 2.825 1.8 5.662 5.53 7.818l159.527 92.24c7.385 4.27 19.36 4.27 26.746 0L913.52 259.067c3.66-2.117 5.5-4.885 5.535-7.657h.005v-.066z"/>
                <path fill="#DDD" d="M448.541 307.33l278.707-161.125c7.386-4.273 19.362-4.273 26.747 0l159.524 92.237c7.386 4.27 7.388 11.194.003 15.465L634.812 415.03c-7.386 4.273-19.361 4.27-26.747 0l-159.524-92.235c-7.388-4.27-7.388-11.194 0-15.465"/>
                <path fill="#B7B7B7" d="M913.52 249.878L634.814 411.004c-7.388 4.273-19.363 4.273-26.749 0L448.54 318.766c-2.803-1.618-4.535-3.624-5.211-5.717-1.106 3.424.629 7.096 5.211 9.745l159.524 92.237c7.386 4.27 19.361 4.27 26.75 0L913.52 253.905c4.582-2.649 6.314-6.32 5.211-9.744-.676 2.093-2.41 4.096-5.211 5.717"/>
                <path fill="#B7B7B7" d="M589.29 349.72l30.013-17.352c3.543-2.048 3.098-5.625-.992-7.99l-17.158-9.918c-4.088-2.365-10.273-2.623-13.813-.575l-30.013 17.355c-3.543 2.045-3.098 5.622.99 7.986l17.158 9.922c4.09 2.364 10.275 2.62 13.815.572M514.105 300.035c.858.211 1.719.57 2.58 1.076 2.229 1.296 2.59 2.535 1.081 3.71 1.277-.5 2.543-.692 3.803-.576 1.264.118 2.559.558 3.893 1.323 1.727.988 2.603 1.993 2.63 3.01.026 1.02-.793 2.009-2.456 2.968l-5.204 3.01-18.124-10.48 4.438-2.567c.84-.485 1.642-.865 2.416-1.136a10.008 10.008 0 0 1 2.406-.533 7.582 7.582 0 0 1 2.537.195zm2.26 7.149l-1.036.603 6.077 3.514 1.214-.704c.984-.567 1.437-1.094 1.355-1.579-.079-.485-.647-1.033-1.705-1.642-1.093-.633-2.098-.967-3.017-1.007-.918-.037-1.882.235-2.887.815zm4.54-13.861l21.798 8.358-3.072 1.777-4.943-2.012-3.137 1.814 3.466 2.862-3.116 1.803-14.442-12.61 3.446-1.992zm-9.798 8.8a5.288 5.288 0 0 0-1.263.364c-.395.168-.882.421-1.458.753l-.461.267L513 306.44l1.026-.595c.969-.56 1.43-1.065 1.38-1.519-.053-.448-.57-.96-1.554-1.528-.51-.293-.984-.499-1.421-.612a3.161 3.161 0 0 0-1.324-.063zm12.409-5.316l6.232 5.006 2.427-1.405-8.66-3.6zm12.289-12.1l18.124 10.48-2.163 1.253-15.274-3.648 10.791 6.239-2.798 1.618-18.126-10.48 2.274-1.315 14.702 3.368-10.265-5.936 2.735-1.578zm12.725-7.358l4.645 6.696 13.842 3.576-3.293 1.904-11.652-3.124.524 1.062 7.346 4.25-3.3 1.908-18.127-10.48 3.303-1.912 7.87 4.553-4.306-6.611 3.148-1.822zM650.88 378.356c1.052.608 1.208 1.514.386 2.074l-.118.074-10.267 5.936c-.953.551-2.617.483-3.717-.155-1.052-.608-1.206-1.515-.384-2.074l.118-.074 10.265-5.936c.956-.551 2.616-.483 3.717.155zm6.148-5.856c.953-.551 2.616-.485 3.714.15 1.1.638 1.221 1.6.268 2.151l-4.116 2.38c-.953.551-2.616.483-3.717-.155-1.1-.636-1.218-1.598-.265-2.149zm7.327-28.04c1.514.876 1.565 2.272.152 3.183l-.152.093-26.273 15.193-2.263 1.307-18.514 10.704c-1.566.905-4.103.905-5.67 0-1.513-.874-1.561-2.272-.15-3.183l.15-.093 18.517-10.704 2.264-1.308 26.273-15.193c1.566-.904 4.1-.904 5.666 0zm61.09-35.579c1.515.874 1.565 2.275.152 3.185l-.151.092-26.273 15.19-2.264 1.31-18.513 10.705c-1.566.906-4.104.906-5.67 0-1.513-.874-1.561-2.273-.15-3.184l.15-.093 18.517-10.704 2.263-1.31 26.273-15.19c1.566-.905 4.1-.905 5.667 0zm61.091-35.578c1.514.874 1.564 2.273.151 3.184l-.15.093-26.274 15.19-2.263 1.31-18.517 10.705c-1.563.904-4.103.904-5.666 0-1.514-.874-1.562-2.275-.151-3.184l.15-.093 18.517-10.704 2.264-1.31 26.272-15.19c1.566-.907 4.101-.907 5.667 0zm61.09-35.579c1.514.874 1.565 2.275.152 3.184l-.151.093-26.273 15.19-2.264 1.31-18.516 10.705c-1.563.906-4.103.906-5.667 0-1.514-.874-1.564-2.273-.151-3.184l.151-.093 18.514-10.704 2.266-1.31 26.273-15.19c1.566-.905 4.1-.905 5.667 0zM679.038 214.609c1.563-.904 4.1-.904 5.667 0 1.563.904 1.566 2.372 0 3.276l-13.431 7.765-2.264 1.31-1.935 1.126c-1.566.904-4.103.904-5.669 0-1.563-.907-1.563-2.372 0-3.276l1.937-1.126 2.264-1.31zm46.65-27.417c1.564-.904 4.1-.904 5.667 0 1.563.904 1.566 2.372 0 3.277l-13.431 7.765-2.264 1.31-18.516 10.707c-1.563.901-4.1.901-5.664 0-1.566-.907-1.566-2.372 0-3.28l18.513-10.703 2.264-1.31z"/>
            </g>
            <g>
                <path fill="#8B8B8B" d="M1012.185 450.94v-5.09l-1.224 1.23c-.919-1.415-2.345-2.746-4.317-3.885L847.12 350.96c-7.388-4.272-19.361-4.272-26.747 0L541.666 512.086c-1.774 1.026-3.111 2.207-4.032 3.464l-1.501-.683v4.863c-.039 2.826 1.8 5.662 5.53 7.818l159.527 92.24c7.386 4.27 19.361 4.27 26.747 0l278.707-161.126c3.661-2.116 5.501-4.884 5.535-7.657h.006v-.066z"/>
                <path fill="#DDD" d="M541.666 506.926L820.373 345.8c7.386-4.273 19.361-4.273 26.747 0l159.524 92.237c7.385 4.27 7.388 11.195.003 15.465l-278.71 161.123c-7.386 4.273-19.362 4.27-26.747 0l-159.524-92.234c-7.388-4.27-7.388-11.195 0-15.465"/>
                <path fill="#B7B7B7" d="M1006.646 449.473L727.938 610.6c-7.388 4.273-19.364 4.273-26.75 0l-159.523-92.237c-2.803-1.618-4.535-3.624-5.212-5.717-1.105 3.424.63 7.096 5.212 9.745l159.524 92.237c7.385 4.27 19.361 4.27 26.75 0L1006.645 453.5c4.582-2.649 6.314-6.32 5.21-9.745-.676 2.093-2.41 4.096-5.21 5.717"/>
                <path fill="#B7B7B7" d="M682.415 549.315l30.013-17.352c3.543-2.048 3.098-5.624-.992-7.989l-17.158-9.919c-4.088-2.364-10.273-2.622-13.813-.574l-30.013 17.354c-3.543 2.046-3.098 5.623.99 7.987l17.158 9.921c4.09 2.365 10.275 2.62 13.815.572M607.23 499.63c.858.212 1.718.57 2.579 1.076 2.23 1.297 2.59 2.536 1.082 3.711 1.276-.5 2.542-.693 3.803-.577 1.263.119 2.558.559 3.893 1.323 1.726.989 2.603 1.993 2.63 3.01.026 1.02-.793 2.01-2.456 2.969l-5.204 3.01-18.124-10.48 4.437-2.568c.84-.485 1.643-.864 2.417-1.136a10.008 10.008 0 0 1 2.405-.532 7.582 7.582 0 0 1 2.538.195zm2.26 7.15l-1.036.603 6.077 3.513 1.213-.703c.985-.567 1.437-1.094 1.356-1.58-.08-.484-.648-1.032-1.706-1.641-1.092-.633-2.098-.968-3.016-1.007-.919-.037-1.882.234-2.887.814zm4.54-13.862l21.798 8.359-3.072 1.776-4.943-2.011-3.137 1.813 3.466 2.863-3.116 1.803-14.442-12.61 3.445-1.993zm-9.798 8.8a5.288 5.288 0 0 0-1.264.364c-.394.169-.881.422-1.458.754l-.46.266 5.074 2.934 1.027-.596c.968-.559 1.429-1.065 1.379-1.518-.053-.448-.569-.96-1.553-1.529-.51-.292-.984-.498-1.421-.611a3.161 3.161 0 0 0-1.324-.064zm12.408-5.315l6.233 5.005 2.427-1.405-8.66-3.6zm12.29-12.1l18.124 10.48-2.164 1.252-15.273-3.648 10.79 6.24-2.797 1.618-18.127-10.48 2.274-1.316 14.703 3.369-10.265-5.936 2.735-1.579zm12.724-7.358l4.646 6.695 13.842 3.577-3.293 1.903-11.652-3.123.524 1.062 7.346 4.249-3.3 1.908-18.127-10.48 3.303-1.91 7.87 4.551-4.307-6.61 3.148-1.822zM744.004 577.952c1.053.607 1.21 1.514.387 2.074l-.118.074-10.268 5.936c-.953.55-2.616.482-3.716-.156-1.053-.607-1.207-1.514-.384-2.074l.118-.074 10.265-5.936c.955-.55 2.616-.482 3.716.156zm6.149-5.857c.952-.55 2.616-.485 3.713.15 1.1.639 1.222 1.6.269 2.152l-4.117 2.38c-.952.55-2.616.482-3.716-.156-1.1-.635-1.219-1.597-.266-2.148zm7.327-28.04c1.514.876 1.564 2.273.151 3.184l-.151.092-26.273 15.193-2.263 1.308-18.514 10.704c-1.566.904-4.103.904-5.67 0-1.513-.874-1.561-2.273-.15-3.184l.15-.092 18.517-10.705 2.263-1.307 26.273-15.193c1.566-.904 4.1-.904 5.667 0zm61.09-35.578c1.514.874 1.565 2.275.152 3.184l-.152.092-26.272 15.191-2.264 1.31-18.514 10.704c-1.566.907-4.103.907-5.669 0-1.514-.874-1.562-2.272-.151-3.184l.151-.092 18.516-10.704 2.264-1.31 26.273-15.191c1.566-.904 4.1-.904 5.666 0zm61.09-35.578c1.515.874 1.565 2.273.152 3.184l-.151.092-26.273 15.19-2.264 1.311-18.516 10.704c-1.563.904-4.103.904-5.667 0-1.514-.874-1.562-2.275-.15-3.184l.15-.092 18.517-10.704 2.263-1.31 26.273-15.191c1.566-.907 4.1-.907 5.667 0zm61.091-35.58c1.514.875 1.565 2.276.152 3.185l-.152.092-26.273 15.19-2.263 1.31-18.516 10.705c-1.564.907-4.104.907-5.667 0-1.514-.874-1.564-2.272-.152-3.184l.152-.092 18.514-10.704 2.266-1.31 26.273-15.191c1.566-.904 4.1-.904 5.666 0zM772.163 414.204c1.563-.904 4.1-.904 5.666 0 1.564.904 1.566 2.373 0 3.277l-13.43 7.765-2.264 1.31-1.935 1.126c-1.566.904-4.103.904-5.67 0-1.563-.907-1.563-2.373 0-3.277l1.938-1.125 2.263-1.31zm46.65-27.416c1.563-.904 4.1-.904 5.667 0 1.563.904 1.566 2.372 0 3.276l-13.432 7.765-2.263 1.31-18.516 10.707c-1.564.902-4.101.902-5.665 0-1.566-.906-1.566-2.372 0-3.279l18.514-10.704 2.264-1.31z"/>
            </g>
        </g>
    </g>
</svg>
