<svg width="58" height="59" viewBox="0 0 58 59" fill="none" xmlns="http://www.w3.org/2000/svg">
<rect x="14.5239" width="28.9807" height="28.913" fill="white"/>
<path d="M58.0001 14.4903L43.5098 0V28.9468L58.0001 14.4903Z" fill="#DB1F26"/>
<path d="M29.0143 14.4903L43.5094 0H14.5239L29.0143 14.4903Z" fill="#DB1F26"/>
<path d="M0 14.4903L14.5242 28.9468V0L0 14.4903Z" fill="#DB1F26"/>
<path d="M29.0143 14.4903L14.5239 28.9468H43.5094L29.0143 14.4903Z" fill="#DB1F26"/>
<path d="M10.179 51.2272H3.38333V57.7581H0V42.4722H3.38333V48.7433H10.15V42.4722H13.5333V57.7628H10.15L10.179 51.2272Z" fill="#010101"/>
<path d="M21.7498 58.0555C18.3665 58.0555 15.5777 56.7239 15.5342 53.0736H18.9175C18.961 54.7075 19.9325 55.6944 21.7837 55.6944C23.1515 55.6944 24.7368 55.005 24.7368 53.5033C24.7368 52.2992 23.6783 51.9592 21.9142 51.4397L20.7832 51.1422C18.3133 50.4528 15.8483 49.5083 15.8483 46.76C15.8483 43.3647 19.1108 42.2078 22.064 42.2078C25.1042 42.2078 27.748 43.2372 27.7915 46.6325H24.4082C24.2777 45.2583 23.4415 44.4414 21.8513 44.4414C20.5753 44.4414 19.338 45.0836 19.338 46.4625C19.338 47.5817 20.3965 47.9217 22.6005 48.6111L23.9248 48.9983C26.6122 49.8153 28.3328 50.7172 28.3328 53.2955C28.2942 56.7239 24.8577 58.0555 21.7498 58.0555Z" fill="#010101"/>
<path fill-rule="evenodd" clip-rule="evenodd" d="M30.2324 42.5053H35.6989C36.7301 42.4549 37.7638 42.5118 38.7826 42.6753C40.6773 43.105 42.1321 44.3092 42.1321 46.3681C42.1321 48.342 40.8561 49.3336 39.0049 49.8058C41.1219 50.1931 42.7073 51.2225 42.7073 53.4986C42.7073 56.9789 39.1838 57.7486 36.4481 57.7486H30.2759L30.2324 42.5053ZM35.6989 48.8614C37.1973 48.8614 38.7391 48.5592 38.7391 46.7978C38.7391 45.2064 37.3278 44.7767 35.9164 44.7767H33.5384V48.8567L35.6989 48.8614ZM39.1354 53.2389C39.1354 55.1278 37.5936 55.4725 36.0083 55.4725H33.4949V51.0053H36.1823C37.8111 51.0053 39.1354 51.35 39.1354 53.2389Z" fill="#010101"/>
<path d="M51.5232 58.0556C46.4531 58.0556 44.2056 54.92 44.2056 50.2356C44.2056 45.5511 46.7189 42.1606 51.6972 42.1606C54.8244 42.1606 57.8694 43.5347 57.9564 46.9725H54.4329C54.2589 45.4283 53.2004 44.6539 51.7021 44.6539C48.6184 44.6539 47.6904 47.8744 47.6904 50.3206C47.6904 52.7667 48.6136 55.6047 51.5571 55.6047C53.0989 55.6047 54.2444 54.7878 54.4571 53.2436H57.9999C57.6471 56.7664 54.7809 58.0556 51.5232 58.0556Z" fill="#010101"/>
</svg>
