<svg width="80" height="33" viewBox="0 0 80 33" fill="none" xmlns="http://www.w3.org/2000/svg">
<rect width="79.9918" height="32.9897" fill="#010101"/>
<path d="M37.7844 11.8405C37.7074 11.4117 37.5479 10.5485 37.5479 10.5485L33.8394 10.7519V12.6763L34.884 12.8082V22.8921H38.282V14.6447C39.2937 13.5698 39.9095 13.1162 40.9899 13.1162C42.1748 13.1162 42.7026 13.9409 42.7026 15.7856V22.8921H46.1005V15.178C46.1005 11.945 44.5638 10.2296 41.6552 10.2296C40.1156 10.2323 39.038 10.6804 37.7844 11.8405Z" fill="white"/>
<path fill-rule="evenodd" clip-rule="evenodd" d="M60.2861 7.89827V5.97388L64.8277 5.77869V11.5519C65.7688 10.7125 66.9894 10.2546 68.2504 10.268C71.3157 10.268 73.2236 12.5718 73.2236 16.2749C73.2236 20.646 70.8016 23.1478 66.5844 23.1478C64.8717 23.1229 63.1713 22.8545 61.5342 22.3505V8.05498C61.4133 8.03573 60.2861 7.89827 60.2861 7.89827ZM69.6909 16.6405C69.6909 14.3203 69.0037 13.1436 67.6291 13.1436C66.6504 13.1436 65.7789 13.6467 64.8305 14.7574V19.9807C65.455 20.2348 66.1219 20.3682 66.7961 20.3739C69.1906 20.3739 69.6909 18.3423 69.6909 16.6405Z" fill="white"/>
<path fill-rule="evenodd" clip-rule="evenodd" d="M48.6871 11.0653L48.8741 10.9966C50.3153 10.4959 51.8295 10.2377 53.3552 10.2323C56.8438 10.2323 58.5373 11.6646 58.5373 14.6007V20.7175L59.6865 20.8275V22.7519L55.8926 22.8701C55.8926 22.8701 55.7689 22.246 55.7002 21.9134C54.6981 22.7616 53.4225 23.2177 52.1098 23.1972C49.4239 23.1972 47.8267 21.7622 47.8267 19.3485C47.8267 16.6378 49.8913 15.2632 53.9765 15.2632H55.1861V14.8619C55.1861 13.578 54.8287 12.8852 52.9401 12.8852C51.7748 12.9043 50.6226 13.1344 49.5394 13.5643L49.3029 13.6632L48.6871 11.0653ZM53.9325 17.6275C51.5023 17.6275 51.2273 18.5182 51.2273 19.189V19.2027C51.2273 20.1155 51.7882 20.6186 52.8026 20.6186C53.6246 20.6186 54.3614 20.2832 55.1861 19.5519V17.6275H53.9325Z" fill="white"/>
<path d="M20.7727 3.67286L16.3549 9.12715C16.3191 9.13265 10.0511 6.04812 10.0511 6.04812C9.91903 5.96916 9.75427 5.96916 9.62222 6.04812C9.51471 6.16562 9.48279 6.33375 9.53975 6.48248L11.027 13.3333C11.0105 13.3663 4.70401 16.3766 4.70401 16.3766C4.51707 16.4646 4.4126 16.5856 4.4126 16.7093C4.4126 16.833 4.51432 16.954 4.68751 17.0419L10.9611 20.1265C10.9775 20.1595 9.41054 26.9828 9.41054 26.9828C9.3638 27.1863 9.39129 27.3402 9.48751 27.4172C9.62538 27.4956 9.79577 27.4892 9.92737 27.4007L16.2202 24.4124C16.2559 24.4124 20.6188 29.9107 20.6188 29.9107C20.748 30.0729 20.8937 30.1498 21.0064 30.1223C21.1191 30.0949 21.2208 29.9684 21.2813 29.7677L22.8703 22.9498C22.8978 22.9278 29.9081 22.9498 29.9081 22.9498C30.1171 22.9498 30.26 22.8894 30.315 22.7766C30.3608 22.6247 30.3172 22.4599 30.2023 22.3505L25.8422 16.8467C25.8422 16.8083 30.2408 11.3485 30.2408 11.3485C30.37 11.1863 30.414 11.0351 30.3617 10.9251C30.3095 10.8151 30.1638 10.7491 29.9576 10.7464H28.1762C28.0513 10.7469 27.932 10.7986 27.8463 10.8894L21.2703 17.9052C21.2098 17.9766 21.1521 17.9986 21.1191 17.9711C21.0861 17.9436 21.0861 17.8997 21.1494 17.8172C21.2813 17.6522 24.9294 13.2096 26.7686 10.9746C26.809 10.9307 26.8197 10.8671 26.7961 10.8124C26.7649 10.7549 26.7048 10.719 26.6394 10.7189L24.3301 10.7024C24.143 10.7175 23.9694 10.8054 23.8463 10.9471C22.7769 12.0962 17.4408 17.7787 17.3198 17.9052C17.2593 17.9766 17.2016 17.9986 17.1686 17.9711C17.1356 17.9436 17.1356 17.8997 17.1989 17.8172L22.7439 11.0818C22.8758 10.9196 22.9528 10.8069 22.9281 10.6722C22.9143 10.5979 21.4325 3.89554 21.4188 3.82681C21.372 3.62337 21.2813 3.49691 21.1604 3.46667C21.0394 3.43643 20.8937 3.51341 20.7727 3.67286Z" fill="url(#paint0_linear)"/>
<rect x="2.1582" y="2.5072" width="32.2227" height="27.9753" fill="url(#paint1_radial)"/>
<path d="M27.9146 11.0653L32.8218 11.1093L32.8575 21.4873L27.9503 21.4406L27.9146 11.0653Z" fill="url(#paint2_linear)"/>
<defs>
<linearGradient id="paint0_linear" x1="4.41535" y1="30.1314" x2="30.392" y2="30.1314" gradientUnits="userSpaceOnUse">
<stop stop-color="#C02728"/>
<stop offset="1" stop-color="#89181A"/>
</linearGradient>
<radialGradient id="paint1_radial" cx="0" cy="0" r="1" gradientUnits="userSpaceOnUse" gradientTransform="translate(24.1458 22.6557) scale(24.5251 21.2923)">
<stop offset="0.34" stop-color="#C02728"/>
<stop offset="1" stop-color="#D2744D"/>
</radialGradient>
<linearGradient id="paint2_linear" x1="28.4467" y1="12.655" x2="30.0825" y2="12.6588" gradientUnits="userSpaceOnUse">
<stop stop-color="#C02628"/>
<stop offset="0.01" stop-color="#C02628"/>
<stop offset="0.1" stop-color="#C22E2C"/>
<stop offset="0.23" stop-color="#C64338"/>
<stop offset="0.4" stop-color="#CE654B"/>
<stop offset="0.52" stop-color="#D4825B"/>
<stop offset="0.6" stop-color="#D07051"/>
<stop offset="0.87" stop-color="#C53B34"/>
<stop offset="1" stop-color="#C02628"/>
</linearGradient>
</defs>
</svg>
