<?xml version="1.0" encoding="utf-8"?>
<svg xmlns="http://www.w3.org/2000/svg" width="16" height="16" viewBox="0 0 16 16">
    <path fill="#FF3465" fill-rule="nonzero" d="M1.72 5.882c.712-1.238 2.002-2.019 3.368-2.039h.041c.587 0 1.142.22 1.632.414.366.145.682.27.925.27.217 0 .531-.123.895-.267.527-.207 1.183-.466 1.868-.466.088 0 .175.004.26.013.583.025 2.032.233 2.977 1.616a.131.131 0 0 1-.038.184l-.013.008c-.274.17-1.643 1.107-1.626 2.877.02 2.178 1.82 2.977 2.026 3.061l.01.005c.06.027.09.097.07.16l-.005.015a8.822 8.822 0 0 1-1.102 2.256c-.631.923-1.347 1.968-2.514 1.99-.545.01-.914-.15-1.272-.305-.363-.157-.74-.32-1.328-.32-.62 0-1.014.168-1.395.33-.34.146-.692.295-1.178.315L5.26 16c-1.035 0-1.79-.97-2.537-2.05C1.228 11.792.368 8.23 1.72 5.883zM10.71 0a.132.132 0 0 1 .136.117c.096.874-.221 1.85-.848 2.61-.596.721-1.468 1.168-2.277 1.168-.056 0-.113-.002-.17-.006a.131.131 0 0 1-.119-.114c-.13-.98.363-1.954.866-2.538C8.891.543 9.883.034 10.71 0z"/>
</svg>
