<?xml version="1.0" encoding="utf-8"?>
<svg xmlns="http://www.w3.org/2000/svg" width="16" height="16" viewBox="0 0 16 16">
    <path fill="#FF3465" fill-rule="nonzero" d="M14.197 9.015a.97.97 0 0 1 .795 1.077 6.641 6.641 0 0 1-1.471 3.436 6.776 6.776 0 0 1-2.13 1.711c-2.624 1.349-5.961.9-8.167-1.307l-1.333 1.274c-.074.07-.205.016-.22-.088l-.67-4.678a.116.116 0 0 1 .135-.13l4.7.825c.107.02.155.148.081.22l-1.33 1.27a5.103 5.103 0 0 0 5.382 1.157 4.869 4.869 0 0 0 1.844-1.223A4.855 4.855 0 0 0 13.09 9.82a.939.939 0 0 1 1.106-.805zM8.223 4c.065 0 .118.023.16.07a.26.26 0 0 1 .062.18V5c.444 0 .842.156 1.193.469a.303.303 0 0 1 .098.187.209.209 0 0 1-.07.188l-.472.547a.29.29 0 0 1-.131.062c-.051.01-.1 0-.146-.031a.72.72 0 0 0-.472-.172h-.93a.367.367 0 0 0-.284.133.487.487 0 0 0-.118.336c0 .093.028.182.084.265a.43.43 0 0 0 .208.172l1.498.485c.268.093.497.255.687.484.19.23.314.497.374.805.06.307.044.617-.048.93-.111.343-.3.617-.569.82a1.54 1.54 0 0 1-.902.32v.75a.26.26 0 0 1-.062.18.204.204 0 0 1-.16.07H7.78a.204.204 0 0 1-.16-.07.26.26 0 0 1-.062-.18V11c-.444 0-.846-.156-1.207-.469a.34.34 0 0 1-.083-.187.25.25 0 0 1 .07-.203l.471-.532a.29.29 0 0 1 .132-.062c.05-.01.1.005.146.047a.765.765 0 0 0 .471.156h.93a.367.367 0 0 0 .284-.133.487.487 0 0 0 .118-.336.471.471 0 0 0-.083-.265.43.43 0 0 0-.208-.172l-1.43-.469a1.648 1.648 0 0 1-.79-.563 1.787 1.787 0 0 1-.375-.937 1.96 1.96 0 0 1 .167-.93c.13-.286.314-.515.555-.687.24-.172.509-.258.805-.258h.027v-.75a.26.26 0 0 1 .063-.18.204.204 0 0 1 .16-.07h.443zm4.553-1.932L14.109.794c.074-.07.205-.016.22.088l.67 4.678a.116.116 0 0 1-.135.13l-4.7-.825c-.107-.02-.155-.148-.081-.22l1.33-1.27a5.103 5.103 0 0 0-5.382-1.157 4.869 4.869 0 0 0-1.844 1.223A4.855 4.855 0 0 0 2.91 6.18a.939.939 0 0 1-1.106.805.97.97 0 0 1-.795-1.077 6.641 6.641 0 0 1 1.471-3.436A6.776 6.776 0 0 1 4.61.76c2.624-1.349 5.961-.9 8.167 1.307z"/>
</svg>
