<?xml version="1.0" encoding="utf-8"?>
<svg xmlns="http://www.w3.org/2000/svg" width="16" height="16" viewBox="0 0 16 16">
    <path fill="#FFF" fill-rule="evenodd" d="M16 8c0 1.44-.36 2.774-1.08 4A8.084 8.084 0 0 1 12 14.92 7.755 7.755 0 0 1 8 16c-1.44 0-2.774-.36-4-1.08A8.084 8.084 0 0 1 1.08 12 7.755 7.755 0 0 1 0 8c0-1.44.36-2.774 1.08-4A8.084 8.084 0 0 1 4 1.08 7.755 7.755 0 0 1 8 0c1.44 0 2.774.36 4 1.08A8.084 8.084 0 0 1 14.92 4 7.755 7.755 0 0 1 16 8zm-8.935 4.226L13 6.29a.43.43 0 0 0 .161-.355.43.43 0 0 0-.161-.354l-.71-.742a.51.51 0 0 0-.742 0L6.71 9.677 4.452 7.42a.51.51 0 0 0-.742 0L3 8.161a.43.43 0 0 0-.161.355c0 .15.053.269.161.355l3.355 3.355a.43.43 0 0 0 .355.161.43.43 0 0 0 .355-.161z"/>
</svg>
