<?xml version="1.0" encoding="utf-8"?>
<svg xmlns="http://www.w3.org/2000/svg" width="16" height="16" viewBox="0 0 16 16">
    <path fill="#FF3465" fill-rule="nonzero" d="M13 3a1 1 0 0 1 1 1v8a1 1 0 0 1-1 1H4.766a1 1 0 0 1-.758-.347l-3.446-4a1 1 0 0 1 0-1.306l3.446-4A1 1 0 0 1 4.766 3H13zM9.969 5a.423.423 0 0 0-.308.134L8 6.794l-1.66-1.66a.423.423 0 0 0-.617 0l-.59.59a.423.423 0 0 0 0 .615L6.796 8 5.134 9.66a.423.423 0 0 0 0 .617l.59.59a.423.423 0 0 0 .615 0L8 9.204l1.66 1.661a.423.423 0 0 0 .617 0l.59-.59a.423.423 0 0 0 0-.615L9.204 8l1.661-1.66a.423.423 0 0 0 0-.617l-.59-.59A.423.423 0 0 0 9.97 5z"/>
</svg>
