<?xml version="1.0" encoding="utf-8"?>
<svg xmlns="http://www.w3.org/2000/svg" width="16" height="16" viewBox="0 0 16 16">
    <path fill="#FF3465" fill-rule="nonzero" d="M7.196.611c.698-.103 2.142-.69 2.807-.556.5.1-.312 2.404-1.53 3.426 4.588 1.889 11.288 13.437-2.092 12.46-9.67-.706-4.127-10.436-.183-12.375C4.876 2.71 4.03.744 4.523.203 5.128-.462 6.206.73 7.196.61zm.12 5.845a.396.396 0 0 0-.125.212l-.009.083v.435c-.386.055-.771.204-1.06.47a1.342 1.342 0 0 0-.44 1.013c0 .195.035.39.12.564a1.2 1.2 0 0 0 .348.419c.249.193.549.31.851.397l.181.05v1.556a1.171 1.171 0 0 1-.5-.273 1.003 1.003 0 0 1-.234-.35c-.017-.045-.027-.091-.042-.137a.397.397 0 0 0-.338-.268.397.397 0 0 0-.427.432c.005.045.018.09.031.133a1.735 1.735 0 0 0 .346.633c.25.292.593.49.963.592l.1.025.101.021v.458c0 .153.091.294.23.358a.397.397 0 0 0 .548-.275l.01-.083v-.419c.395-.032.793-.146 1.11-.392.3-.233.501-.576.543-.955a1.447 1.447 0 0 0-.096-.71l-.063-.13c-.182-.317-.494-.515-.823-.645a4.034 4.034 0 0 0-.445-.143L7.97 9.47V7.98c.191.034.383.095.54.211a.75.75 0 0 1 .25.32c.017.042.026.087.042.13a.397.397 0 0 0 .35.252.397.397 0 0 0 .407-.45 1.442 1.442 0 0 0-.093-.284 1.502 1.502 0 0 0-.314-.453c-.278-.273-.649-.43-1.028-.499l-.077-.012-.077-.011V6.75a.397.397 0 0 0-.229-.357.397.397 0 0 0-.425.062zm.653 3.826c.185.048.371.102.541.19a.76.76 0 0 1 .214.156.45.45 0 0 1 .106.216c.025.119.02.248-.021.363l-.038.083-.068.097c-.15.18-.39.269-.62.31l-.114.016v-1.431zm.823 1.056v.001l-.007.012.007-.013zm.02-.036l-.007.013-.004.007-.004.008.001-.004.007-.01.008-.014zm-1.63-3.317V9.28a3.165 3.165 0 0 1-.25-.087 1.353 1.353 0 0 1-.258-.133.446.446 0 0 1-.173-.19.603.603 0 0 1 .062-.53c.138-.2.39-.306.62-.355z"/>
</svg>
