<?xml version="1.0" encoding="utf-8"?>
<svg xmlns="http://www.w3.org/2000/svg" width="24" height="24" viewBox="0 0 24 24">
    <g fill="#FF3465" fill-rule="nonzero">
        <path fill-opacity=".15" d="M12 0c6.627 0 12 5.373 12 12s-5.373 12-12 12S0 18.627 0 12 5.373 0 12 0z"/>
        <path d="M16.42 7.216a5.793 5.793 0 0 1 1.708 4.124.462.462 0 0 1-.924 0c0-1.31-.51-2.543-1.437-3.47a4.875 4.875 0 0 0-3.47-1.437.462.462 0 1 1 0-.924c1.557 0 3.022.606 4.123 1.707zm-1.9 4.124a2.226 2.226 0 0 0-2.223-2.223.462.462 0 1 1 0-.924 3.15 3.15 0 0 1 3.147 3.147.462.462 0 0 1-.924 0zm-1.023 2.356c.74.04 2.694 1.476 2.947 2.164.113.303.115.624.005.952-.249.739-.692 1.272-1.282 1.543-.278.127-.577.19-.89.19-.332 0-.68-.071-1.032-.215-1.76-.717-3.3-1.72-4.578-2.982l-.01-.01c-1.264-1.278-2.269-2.82-2.987-4.583-.279-.685-.287-1.35-.025-1.922.271-.59.804-1.033 1.543-1.282.328-.11.649-.108.954.006.686.252 2.122 2.207 2.162 2.945.036.707-.487 1.064-.739 1.236a.462.462 0 0 1-.521-.763c.297-.203.344-.295.338-.424-.047-.396-1.201-1.97-1.563-2.129a.475.475 0 0 0-.337.005c-.49.165-.835.439-.997.791-.153.335-.14.746.04 1.188.672 1.647 1.608 3.087 2.784 4.278l.002.002c1.192 1.178 2.633 2.116 4.283 2.789.442.18.852.193 1.188.04.352-.162.626-.507.791-.998a.477.477 0 0 0 .004-.337c-.157-.36-1.732-1.515-2.132-1.562-.125-.006-.217.041-.42.338a.462.462 0 1 1-.763-.522c.172-.251.53-.775 1.235-.738z"/>
    </g>
</svg>
