<?xml version="1.0" encoding="utf-8"?>
<svg xmlns="http://www.w3.org/2000/svg" width="16" height="16" viewBox="0 0 16 16">
    <path fill="#FF3465" fill-rule="nonzero" d="M7.014.359A1.037 1.037 0 0 1 8.57.346l.272.304c.298.334.775.438 1.184.262l.377-.16a1.037 1.037 0 0 1 1.41.664l.114.392c.125.429.51.73.956.75l.409.016a1.04 1.04 0 0 1 .981 1.21l-.068.403c-.076.442.14.88.533 1.09l.36.193c.553.297.72 1.007.36 1.518l-.236.333c-.258.367-.252.854.01 1.214l.242.33c.37.508.213 1.221-.333 1.522l-.357.2c-.39.216-.599.658-.517 1.096l.075.402a1.039 1.039 0 0 1-.962 1.227l-.409.023c-.445.023-.824.33-.942.763l-.108.396a1.042 1.042 0 0 1-1.4.687l-.38-.157a1.04 1.04 0 0 0-1.181.278l-.269.307a1.037 1.037 0 0 1-1.557.014l-.272-.305a1.037 1.037 0 0 0-1.184-.262l-.376.16a1.037 1.037 0 0 1-1.41-.663l-.115-.393a1.043 1.043 0 0 0-.955-.75l-.41-.016a1.04 1.04 0 0 1-.981-1.21l.069-.403c.075-.442-.141-.88-.534-1.09l-.36-.192a1.042 1.042 0 0 1-.36-1.519l.236-.333a1.042 1.042 0 0 0-.01-1.214l-.242-.33A1.038 1.038 0 0 1 .565 5.58l.356-.2c.39-.216.6-.657.517-1.096l-.075-.402a1.039 1.039 0 0 1 .962-1.227l.41-.023c.444-.023.824-.33.941-.763l.108-.396a1.042 1.042 0 0 1 1.4-.687l.38.157c.413.17.887.06 1.182-.278zm2.958 7.368a1.609 1.609 0 1 0 0 3.22 1.609 1.609 0 1 0 0-3.22zm.239-2.588a.394.394 0 0 0-.553.052L5.434 10.28a.394.394 0 0 0 .052.553l.066.044c.161.086.367.05.487-.096l4.224-5.088a.394.394 0 0 0-.052-.553zm-.24 3.53a.667.667 0 1 1 0 1.336.667.667 0 0 1 0-1.335zM5.729 5.019a1.609 1.609 0 1 0 0 3.22 1.609 1.609 0 1 0 0-3.22zm.003.942a.667.667 0 1 1 0 1.335.667.667 0 0 1 0-1.335z"/>
</svg>
