<svg width="80" height="25" viewBox="0 0 80 25" fill="none" xmlns="http://www.w3.org/2000/svg">
<path fill-rule="evenodd" clip-rule="evenodd" d="M14.9662 11.6877C14.0736 9.51537 12.1834 8.06046 9.79547 8.06046C6.57129 8.06046 3.88917 10.795 3.88917 14.0272C3.88917 17.2594 6.48867 20.1249 9.76927 20.1249C12.0951 20.1587 14.18 18.6961 14.9401 16.4977H19.0086C18.4564 21.0176 14.3093 24.1552 9.87406 24.1552C4.33451 24.1552 0 19.5023 0 14.0091C0 8.56826 4.33048 3.99396 9.84383 3.99396C14.2307 3.99597 18.4564 7.20202 19.0086 11.6877H14.9662Z" fill="#E62327"/>
<path fill-rule="evenodd" clip-rule="evenodd" d="M44.6027 23.8146H40.375V0H44.6027V23.8146Z" fill="#E62327"/>
<path fill-rule="evenodd" clip-rule="evenodd" d="M63.6333 17.4267H67.597C67.728 19.5809 69.8802 20.528 71.8751 20.528C73.1084 20.528 75.6555 20.1249 75.6555 18.4262C75.6555 14.799 64.2116 16.5078 64.2116 9.83175C64.2116 5.91437 67.992 4.04837 71.4298 4.04837C75.4197 4.04837 79.2524 6.17835 79.2524 10.4967V10.6015H75.2887C75.1315 8.47356 73.2938 7.63124 71.2988 7.63124C70.2227 7.63124 68.3325 8.0524 68.3325 9.49724C68.3325 10.7587 69.8822 11.3632 70.8776 11.6252L73.7391 12.4151C76.5482 13.1768 79.8026 14.8333 79.8026 18.1703C79.8026 22.402 75.3391 24.1894 71.7179 24.1894C67.5446 24.1894 63.8167 21.8761 63.6333 17.4348L63.6333 17.4267Z" fill="#E62327"/>
<path fill-rule="evenodd" clip-rule="evenodd" d="M29.5095 4.04837C24.0243 4.04837 19.4561 8.62268 19.4561 14.1239C19.4561 19.6252 24.0767 24.1995 29.588 24.1995C35.0994 24.1995 39.5629 19.4156 39.5629 13.9486C39.5629 8.51588 34.8374 4.04837 29.5095 4.04837ZM29.4571 20.1693C26.1765 20.1693 23.4117 17.3844 23.4117 14.0977C23.4117 10.8111 26.1684 8.0262 29.4571 8.0262C32.8103 8.0262 35.5286 10.7445 35.5286 14.0977C35.5286 17.451 32.8103 20.1693 29.4571 20.1693Z" fill="#E62327"/>
<path fill-rule="evenodd" clip-rule="evenodd" d="M63.581 13.9567C63.581 8.77782 59.9538 4.02216 54.4989 4.02216C48.8808 4.03022 45.3442 8.96321 45.3442 14.2468C45.3442 19.5305 48.915 24.1552 54.4787 24.1552C58.1543 24.1552 63.0893 21.6584 63.2465 17.4529H59.3009C58.6722 19.3975 56.7558 20.3708 54.7871 20.3708C51.6636 20.3708 49.5377 18.005 49.3805 15.0086H63.5548C63.5548 14.666 63.581 14.3254 63.581 13.9567ZM49.6425 11.6876C50.116 9.40049 52.2944 7.85893 54.6037 7.85893C56.913 7.85893 58.908 9.38437 59.3291 11.6876H49.6425Z" fill="#E62327"/>
</svg>
