<svg xmlns="http://www.w3.org/2000/svg" xmlns:xlink="http://www.w3.org/1999/xlink" width="375" height="272" viewBox="0 0 375 272">
    <defs>
        <path id="a" d="M0 0h375v272H0z"/>
        <filter id="b" width="118.5%" height="139.1%" x="-9.3%" y="-19.6%" filterUnits="objectBoundingBox">
            <feOffset dy="25" in="SourceAlpha" result="shadowOffsetOuter1"/>
            <feColorMatrix in="shadowOffsetOuter1" result="shadowMatrixOuter1" values="0 0 0 0 0 0 0 0 0 0 0 0 0 0 0 0 0 0 0.15196132 0"/>
            <feMerge>
                <feMergeNode in="shadowMatrixOuter1"/>
                <feMergeNode in="SourceGraphic"/>
            </feMerge>
        </filter>
    </defs>
    <g fill="none" fill-rule="evenodd">
        <mask id="c" fill="#fff">
            <use xlink:href="#a"/>
        </mask>
        <g fill-rule="nonzero" filter="url(#b)" mask="url(#c)">
            <path fill="#272727" d="M401.807 55.861v-2.624l-.63.635c-.474-.73-1.21-1.417-2.225-2.004L316.754 4.313c-3.807-2.203-9.977-2.203-13.782 0l-143.61 83.075c-.914.529-1.603 1.138-2.078 1.786l-.773-.352v2.507c-.02 1.457.928 2.92 2.85 4.031l82.2 47.558c3.805 2.202 9.976 2.202 13.781 0l143.61-83.075c1.886-1.091 2.834-2.518 2.852-3.948h.003v-.034z"/>
            <path fill="#666" d="M159.362 84.728l143.61-83.076c3.805-2.203 9.976-2.203 13.782 0l82.198 47.557c3.805 2.202 3.807 5.772.001 7.974l-143.611 83.074c-3.806 2.203-9.976 2.201-13.782 0L159.362 92.7c-3.807-2.202-3.807-5.772 0-7.973"/>
            <path fill="#B7B7B7" d="M398.953 55.105l-143.61 83.076c-3.807 2.203-9.978 2.203-13.783 0L159.36 90.624c-1.444-.835-2.336-1.869-2.685-2.948-.57 1.766.324 3.659 2.685 5.025l82.199 47.556c3.805 2.202 9.976 2.202 13.783 0l143.61-83.075c2.36-1.366 3.253-3.259 2.685-5.024-.349 1.079-1.242 2.112-2.685 2.947"/>
            <path fill="#B7B7B7" d="M231.886 106.583l15.465-8.946c1.825-1.056 1.596-2.9-.511-4.12l-8.842-5.114c-2.106-1.219-5.293-1.352-7.117-.296l-15.465 8.948c-1.825 1.055-1.596 2.899.51 4.118l8.841 5.115c2.108 1.22 5.295 1.351 7.119.295M193.145 80.966c.442.109.886.294 1.33.555 1.148.668 1.334 1.307.557 1.913a4.239 4.239 0 0 1 1.96-.297c.65.06 1.318.288 2.005.682.89.51 1.341 1.027 1.355 1.552.014.526-.408 1.035-1.265 1.53l-2.682 1.552-9.338-5.403 2.286-1.324c.433-.25.846-.446 1.245-.586a5.154 5.154 0 0 1 1.24-.274c.428-.041.862-.009 1.307.1zm2.653 3.266c-.473-.02-.97.12-1.488.42l-.534.311 3.131 1.812.625-.363c.508-.292.741-.564.699-.814-.04-.25-.334-.533-.879-.847-.563-.326-1.08-.499-1.554-.52zm.85-6.727l11.233 4.31-1.583.916-2.547-1.037-1.616.935 1.786 1.476-1.606.93-7.441-6.502 1.775-1.028zm-5.048 4.538c-.229.036-.446.099-.65.187a7.41 7.41 0 0 0-.752.389l-.237.137 2.615 1.513.528-.308c.5-.288.737-.549.711-.782-.027-.231-.293-.495-.8-.789a3.033 3.033 0 0 0-.732-.315 1.628 1.628 0 0 0-.683-.032zm6.394-2.741l3.212 2.58 1.25-.724-4.462-1.856zm6.333-6.239l9.338 5.404-1.114.645-7.87-1.88 5.56 3.216-1.442.835-9.34-5.404 1.172-.678 7.576 1.737-5.29-3.06 1.41-.815zm6.556-3.793l2.394 3.452 7.132 1.844-1.696.981-6.004-1.61.27.547 3.785 2.191-1.7.984-9.341-5.404 1.702-.985 4.055 2.347-2.219-3.408 1.622-.94zM263.621 121.348c.53.306.619.758.23 1.048l-.092.06-5.29 3.06c-.491.284-1.348.249-1.915-.08-.53-.306-.618-.758-.228-1.048l.091-.06 5.29-3.06c.491-.284 1.347-.25 1.914.08zm3.168-3.02c.491-.284 1.348-.25 1.914.078.567.329.63.825.138 1.109l-2.12 1.227c-.492.284-1.349.249-1.916-.08-.567-.328-.628-.824-.137-1.108zm3.776-14.457c.764.443.804 1.143.12 1.613l-.12.076-13.538 7.834-1.166.674-9.54 5.519c-.807.466-2.114.466-2.921 0-.764-.442-.803-1.143-.12-1.613l.12-.077 9.54-5.519 1.167-.674 13.538-7.833c.807-.466 2.113-.466 2.92 0zm31.478-18.344c.764.442.805 1.144.12 1.614l-.12.076-13.538 7.832-1.166.675-9.54 5.52c-.806.467-2.114.467-2.92 0-.765-.442-.804-1.144-.121-1.614l.12-.076 9.541-5.52 1.166-.675 13.538-7.832c.807-.466 2.113-.466 2.92 0zm31.478-18.344c.764.442.805 1.144.12 1.614l-.12.076-13.538 7.832-1.166.675-9.54 5.52c-.806.466-2.115.466-2.92 0-.765-.442-.804-1.145-.121-1.614l.12-.076 9.541-5.519 1.166-.675 13.538-7.833c.807-.467 2.113-.467 2.92 0zm31.478-18.344c.765.442.805 1.144.12 1.614l-.12.075-13.537 7.833-1.167.675-9.54 5.52c-.806.467-2.115.467-2.92 0-.765-.443-.805-1.144-.121-1.614l.12-.076 9.54-5.52 1.168-.675 13.537-7.832c.807-.466 2.113-.466 2.92 0zM278.13 36.92c.806-.465 2.113-.465 2.92 0 .806.467.807 1.224 0 1.69l-6.92 4.004-1.167.675-.997.58c-.807.467-2.114.467-2.92 0s-.806-1.222 0-1.689l.997-.58 1.167-.675zm24.038-14.135c.805-.466 2.113-.466 2.92 0 .805.466.807 1.223 0 1.69l-6.92 4.003-1.167.676-9.541 5.52c-.806.465-2.113.465-2.919 0-.807-.467-.807-1.223 0-1.69l9.54-5.52 1.166-.675z"/>
            <g>
                <path fill="#272727" d="M225.115 158.256v-2.625l-.63.635c-.474-.73-1.21-1.416-2.225-2.003l-82.198-47.556c-3.807-2.203-9.977-2.203-13.782 0l-143.61 83.076c-.914.528-1.603 1.137-2.078 1.785l-.773-.352v2.508c-.02 1.457.928 2.919 2.85 4.03l82.2 47.559c3.805 2.202 9.976 2.202 13.781 0l143.61-83.075c1.886-1.092 2.834-2.519 2.852-3.948h.003v-.034z"/>
                <path fill="#666" d="M-17.33 187.122l143.61-83.075c3.805-2.203 9.976-2.203 13.782 0l82.198 47.556c3.805 2.202 3.807 5.772.001 7.974L78.65 242.651c-3.806 2.203-9.976 2.202-13.782 0l-82.198-47.556c-3.807-2.201-3.807-5.771 0-7.973"/>
                <path fill="#B7B7B7" d="M222.26 157.5L78.65 240.575c-3.806 2.203-9.977 2.203-13.782 0l-82.199-47.557c-1.444-.834-2.336-1.868-2.685-2.947-.57 1.765.324 3.658 2.685 5.024l82.199 47.557c3.805 2.201 9.976 2.201 13.783 0l143.61-83.076c2.36-1.365 3.253-3.259 2.685-5.024-.349 1.08-1.242 2.112-2.685 2.948"/>
                <path fill="#B7B7B7" d="M55.194 208.978l15.465-8.947c1.825-1.056 1.596-2.9-.511-4.12l-8.842-5.113c-2.106-1.22-5.293-1.352-7.117-.297l-15.465 8.948c-1.825 1.055-1.596 2.9.51 4.118l8.841 5.116c2.108 1.219 5.295 1.35 7.119.295M16.453 183.36c.442.11.886.294 1.33.555 1.148.669 1.334 1.307.557 1.914a4.239 4.239 0 0 1 1.96-.298c.65.061 1.318.288 2.005.682.89.51 1.341 1.028 1.355 1.552.014.526-.408 1.036-1.265 1.53l-2.682 1.552-9.338-5.403 2.286-1.324c.433-.25.846-.446 1.245-.585a5.154 5.154 0 0 1 1.24-.275c.428-.04.862-.008 1.307.1zm2.653 3.266c-.473-.019-.97.121-1.488.42l-.534.311 3.131 1.812.625-.363c.508-.292.741-.564.699-.814-.04-.25-.334-.533-.879-.847-.563-.326-1.08-.498-1.554-.519zm.85-6.726l11.233 4.31-1.583.915-2.547-1.037-1.616.935 1.786 1.476-1.606.93-7.441-6.502 1.775-1.027zm-5.048 4.537c-.229.037-.446.1-.65.187a7.41 7.41 0 0 0-.752.39l-.237.136 2.615 1.513.528-.307c.5-.288.737-.55.711-.783-.027-.231-.293-.495-.8-.788a3.033 3.033 0 0 0-.732-.315 1.628 1.628 0 0 0-.683-.033zm6.394-2.74l3.212 2.58 1.25-.724-4.462-1.857zm6.333-6.24l9.338 5.404-1.114.646-7.87-1.881 5.56 3.217-1.442.834-9.34-5.403 1.172-.678 7.576 1.736-5.29-3.06 1.41-.814zm6.556-3.793l2.394 3.452 7.132 1.844-1.696.981-6.004-1.61.27.548 3.785 2.19-1.7.984-9.341-5.403 1.702-.986 4.055 2.348-2.219-3.409 1.622-.939zM86.93 223.742c.528.306.618.758.228 1.048l-.09.06-5.291 3.06c-.491.284-1.348.25-1.915-.08-.53-.306-.618-.758-.228-1.048l.091-.06 5.29-3.06c.491-.284 1.347-.249 1.914.08zm3.167-3.02c.491-.283 1.348-.25 1.914.078.567.33.63.825.138 1.11l-2.12 1.226c-.492.285-1.349.25-1.916-.08-.567-.327-.628-.823-.137-1.107zm3.776-14.457c.764.443.804 1.143.12 1.613l-.12.077-13.538 7.833-1.166.674-9.54 5.52c-.807.465-2.114.465-2.921 0-.764-.442-.803-1.144-.12-1.614l.12-.076 9.54-5.52 1.167-.673 13.538-7.834c.807-.466 2.113-.466 2.92 0zm31.478-18.343c.764.441.805 1.144.12 1.613l-.12.076-13.538 7.832-1.166.675-9.54 5.52c-.807.467-2.114.467-2.92 0-.765-.442-.804-1.144-.121-1.614l.12-.076 9.541-5.519 1.166-.675 13.538-7.832c.807-.467 2.113-.467 2.92 0zm31.478-18.344c.764.441.805 1.143.12 1.613l-.12.076-13.538 7.832-1.166.676-9.54 5.519c-.806.466-2.115.466-2.92 0-.765-.442-.804-1.144-.121-1.614l.12-.076 9.541-5.519 1.166-.675 13.538-7.832c.807-.468 2.113-.468 2.92 0zm31.478-18.344c.765.441.805 1.144.12 1.613l-.12.076-13.537 7.832-1.167.675-9.54 5.52c-.806.467-2.115.467-2.92 0-.765-.442-.805-1.144-.121-1.614l.12-.076 9.54-5.519 1.168-.675 13.537-7.832c.807-.467 2.113-.467 2.92 0zM101.438 139.315c.806-.466 2.113-.466 2.92 0 .806.466.807 1.223 0 1.69l-6.92 4.003-1.167.676-.997.58c-.807.466-2.114.466-2.92 0-.806-.467-.806-1.223 0-1.69l.997-.58 1.167-.675zm24.038-14.135c.805-.467 2.113-.467 2.92 0 .805.466.807 1.223 0 1.689l-6.921 4.004-1.166.675-9.541 5.52c-.806.465-2.113.465-2.919 0-.807-.467-.807-1.223 0-1.69l9.54-5.52 1.166-.675z"/>
            </g>
            <g>
                <path fill="#8B8B8B" d="M171.3 55.861v-2.624l-.63.635c-.474-.73-1.21-1.417-2.225-2.004L86.247 4.313c-3.807-2.203-9.976-2.203-13.782 0l-143.61 83.075c-.914.529-1.603 1.138-2.077 1.786l-.774-.352v2.507c-.02 1.457.928 2.92 2.85 4.031l82.2 47.558c3.805 2.202 9.976 2.202 13.781 0l143.61-83.075c1.887-1.091 2.835-2.518 2.852-3.948h.003v-.034z"/>
                <path fill="#DDD" d="M-71.145 84.728L72.465 1.652c3.805-2.203 9.976-2.203 13.782 0l82.198 47.557c3.805 2.202 3.807 5.772.001 7.974l-143.61 83.074c-3.806 2.203-9.977 2.201-13.783 0L-71.145 92.7c-3.807-2.202-3.807-5.772 0-7.973"/>
                <path fill="#B7B7B7" d="M168.446 55.105l-143.61 83.076c-3.807 2.203-9.978 2.203-13.783 0l-82.198-47.557c-1.445-.835-2.337-1.869-2.686-2.948-.57 1.766.324 3.659 2.686 5.025l82.198 47.556c3.805 2.202 9.976 2.202 13.783 0l143.61-83.075c2.36-1.366 3.253-3.259 2.685-5.024-.349 1.079-1.242 2.112-2.685 2.947"/>
                <path fill="#B7B7B7" d="M1.38 106.583l15.464-8.946c1.825-1.056 1.596-2.9-.511-4.12l-8.841-5.114c-2.107-1.219-5.294-1.352-7.118-.296l-15.465 8.948c-1.825 1.055-1.596 2.899.51 4.118l8.841 5.115c2.108 1.22 5.295 1.351 7.12.295M33.114 121.348c.53.306.619.758.23 1.048l-.091.06-5.29 3.06c-.492.284-1.349.249-1.916-.08-.529-.306-.617-.758-.228-1.048l.091-.06 5.29-3.06c.492-.284 1.347-.25 1.914.08zm3.168-3.02c.491-.284 1.348-.25 1.914.078.567.329.63.825.138 1.109l-2.12 1.227c-.492.284-1.349.249-1.916-.08-.567-.328-.628-.824-.137-1.108zm3.776-14.457c.764.443.805 1.143.12 1.613l-.12.076-13.538 7.834-1.166.674-9.54 5.519c-.807.466-2.114.466-2.92 0-.765-.442-.804-1.143-.121-1.613l.12-.077 9.541-5.519 1.166-.674 13.538-7.833c.807-.466 2.113-.466 2.92 0zm31.478-18.344c.765.442.805 1.144.12 1.614l-.12.076-13.538 7.832-1.166.675-9.54 5.52c-.806.467-2.114.467-2.92 0-.765-.442-.804-1.144-.121-1.614l.12-.076 9.541-5.52 1.167-.675 13.537-7.832c.807-.466 2.113-.466 2.92 0zm31.478-18.344c.765.442.805 1.144.12 1.614l-.12.076-13.537 7.832-1.167.675-9.54 5.52c-.806.466-2.115.466-2.92 0-.765-.442-.804-1.145-.121-1.614l.12-.076 9.541-5.519 1.167-.675 13.537-7.833c.807-.467 2.113-.467 2.92 0zm31.478-18.344c.765.442.805 1.144.121 1.614l-.12.075-13.538 7.833-1.167.675-9.54 5.52c-.806.467-2.115.467-2.92 0-.765-.443-.805-1.144-.121-1.614l.12-.076 9.54-5.52 1.168-.675 13.537-7.832c.807-.466 2.113-.466 2.92 0zM47.624 36.92c.805-.465 2.112-.465 2.92 0 .805.467.806 1.224 0 1.69l-6.921 4.004-1.167.675-.996.58c-.807.467-2.115.467-2.922 0-.805-.467-.805-1.222 0-1.689l.998-.58 1.167-.675zM71.66 22.786c.806-.466 2.113-.466 2.92 0 .806.466.807 1.223 0 1.69l-6.92 4.003-1.167.676-9.541 5.52c-.806.465-2.113.465-2.919 0-.807-.467-.807-1.223 0-1.69l9.54-5.52 1.166-.675z"/>
            </g>
            <g>
                <path fill="#8B8B8B" d="M447.55 158.256v-2.625l-.631.635c-.474-.73-1.209-1.416-2.225-2.003l-82.198-47.556c-3.807-2.203-9.976-2.203-13.781 0l-143.61 83.076c-.914.528-1.603 1.137-2.078 1.785l-.773-.352v2.508c-.02 1.457.928 2.919 2.85 4.03l82.199 47.559c3.805 2.202 9.976 2.202 13.782 0l143.61-83.075c1.886-1.092 2.834-2.519 2.852-3.948h.002v-.034z"/>
                <path fill="#DDD" d="M205.105 187.122l143.61-83.075c3.805-2.203 9.976-2.203 13.781 0l82.198 47.556c3.806 2.202 3.807 5.772.002 7.974l-143.611 83.074c-3.806 2.203-9.977 2.202-13.782 0l-82.198-47.556c-3.807-2.201-3.807-5.771 0-7.973"/>
                <path fill="#B7B7B7" d="M444.695 157.5l-143.61 83.075c-3.807 2.203-9.977 2.203-13.783 0l-82.198-47.557c-1.444-.834-2.337-1.868-2.685-2.947-.57 1.765.324 3.658 2.685 5.024l82.198 47.557c3.806 2.201 9.976 2.201 13.783 0l143.61-83.076c2.361-1.365 3.254-3.259 2.685-5.024-.348 1.08-1.242 2.112-2.685 2.948"/>
                <path fill="#B7B7B7" d="M277.629 208.978l15.464-8.947c1.826-1.056 1.597-2.9-.51-4.12l-8.842-5.113c-2.106-1.22-5.293-1.352-7.117-.297l-15.465 8.948c-1.826 1.055-1.596 2.9.51 4.118l8.84 5.116c2.108 1.219 5.296 1.35 7.12.295M238.888 183.36c.442.11.885.294 1.329.555 1.149.669 1.334 1.307.557 1.914a4.239 4.239 0 0 1 1.96-.298c.65.061 1.318.288 2.006.682.89.51 1.341 1.028 1.355 1.552.013.526-.409 1.036-1.266 1.53l-2.68 1.552-9.34-5.403 2.287-1.324c.432-.25.846-.446 1.245-.585a5.154 5.154 0 0 1 1.24-.275c.428-.04.862-.008 1.307.1zm2.653 3.266c-.474-.019-.97.121-1.488.42l-.535.311 3.132 1.812.625-.363c.507-.292.74-.564.699-.814-.041-.25-.334-.533-.88-.847-.562-.326-1.08-.498-1.553-.519zm.85-6.726l11.232 4.31-1.582.915-2.547-1.037-1.617.935 1.786 1.476-1.605.93-7.442-6.502 1.775-1.027zm-5.048 4.537c-.23.037-.446.1-.65.187a7.41 7.41 0 0 0-.752.39l-.238.136 2.615 1.513.53-.307c.498-.288.736-.55.71-.783-.027-.231-.293-.495-.8-.788a3.033 3.033 0 0 0-.733-.315 1.628 1.628 0 0 0-.682-.033zm6.394-2.74l3.211 2.58 1.25-.724-4.461-1.857zm6.332-6.24l9.339 5.404-1.115.646-7.87-1.881 5.56 3.217-1.441.834-9.34-5.403 1.171-.678 7.576 1.736-5.289-3.06 1.41-.814zm6.557-3.793l2.394 3.452 7.132 1.844-1.697.981-6.004-1.61.27.548 3.785 2.19-1.7.984-9.34-5.403 1.702-.986 4.055 2.348-2.22-3.409 1.623-.939zM309.364 223.742c.529.306.618.758.229 1.048l-.09.06-5.291 3.06c-.491.284-1.349.25-1.915-.08-.53-.306-.618-.758-.228-1.048l.09-.06 5.29-3.06c.492-.284 1.348-.249 1.915.08zm3.168-3.02c.49-.283 1.348-.25 1.913.078.567.33.63.825.139 1.11l-2.121 1.226c-.491.285-1.348.25-1.915-.08-.567-.327-.628-.823-.137-1.107zm3.775-14.457c.765.443.805 1.143.121 1.613l-.12.077-13.538 7.833-1.167.674-9.54 5.52c-.806.465-2.113.465-2.92 0-.765-.442-.804-1.144-.12-1.614l.12-.076 9.54-5.52 1.167-.673 13.537-7.834c.807-.466 2.113-.466 2.92 0zm31.479-18.343c.764.441.804 1.144.12 1.613l-.12.076-13.538 7.832-1.166.675-9.54 5.52c-.807.467-2.114.467-2.921 0-.765-.442-.804-1.144-.12-1.614l.12-.076 9.54-5.519 1.167-.675 13.538-7.832c.807-.467 2.113-.467 2.92 0zm31.478-18.344c.764.441.804 1.143.12 1.613l-.12.076-13.538 7.832-1.166.676-9.541 5.519c-.806.466-2.115.466-2.92 0-.765-.442-.804-1.144-.12-1.614l.12-.076 9.54-5.519 1.167-.675 13.538-7.832c.807-.468 2.113-.468 2.92 0zm31.478-18.344c.764.441.804 1.144.12 1.613l-.12.076-13.538 7.832-1.166.675-9.541 5.52c-.806.467-2.114.467-2.92 0-.764-.442-.805-1.144-.12-1.614l.12-.076 9.54-5.519 1.167-.675 13.538-7.832c.807-.467 2.113-.467 2.92 0zM323.873 139.315c.806-.466 2.113-.466 2.92 0 .805.466.807 1.223 0 1.69l-6.92 4.003-1.167.676-.997.58c-.807.466-2.114.466-2.921 0-.806-.467-.806-1.223 0-1.69l.998-.58 1.166-.675zm24.037-14.135c.806-.467 2.113-.467 2.92 0 .806.466.807 1.223 0 1.689l-6.92 4.004-1.167.675-9.54 5.52c-.806.465-2.114.465-2.92 0-.806-.467-.806-1.223 0-1.69l9.54-5.52 1.167-.675z"/>
            </g>
        </g>
    </g>
</svg>
