<svg width="9" height="16" viewBox="0 0 9 16" fill="none" xmlns="http://www.w3.org/2000/svg">
<path fill-rule="evenodd" clip-rule="evenodd" d="M8.2621 0.00329897L6.20602 0C3.89608 0 2.40329 1.53155 2.40329 3.90202V5.70111H0.335994C0.157355 5.70111 0.0126953 5.84594 0.0126953 6.02458V8.63126C0.0126953 8.8099 0.15752 8.95456 0.335994 8.95456H2.40329V15.532C2.40329 15.7107 2.54795 15.8553 2.72659 15.8553H5.42383C5.60247 15.8553 5.74713 15.7105 5.74713 15.532V8.95456H8.16428C8.34292 8.95456 8.48758 8.8099 8.48758 8.63126L8.48857 6.02458C8.48857 5.9388 8.45443 5.85666 8.39389 5.79596C8.33335 5.73526 8.25088 5.70111 8.16511 5.70111H5.74713V4.176C5.74713 3.44297 5.92181 3.07085 6.8767 3.07085L8.26177 3.07035C8.44024 3.07035 8.5849 2.92553 8.5849 2.74705V0.326598C8.5849 0.148289 8.44041 0.00362887 8.2621 0.00329897Z" fill="#ED1F5F"/>
</svg>
