<svg width="16" height="16" viewBox="0 0 16 16" fill="none" xmlns="http://www.w3.org/2000/svg">
<path fill-rule="evenodd" clip-rule="evenodd" d="M4.75814 0H11.2139C13.8375 0 15.972 2.13449 15.972 4.75814V11.2139C15.972 13.8375 13.8375 15.972 11.2139 15.972H4.75814C2.13449 15.972 0 13.8375 0 11.2139V4.75814C0 2.13449 2.13449 0 4.75814 0ZM11.2139 14.3652C12.9543 14.3652 14.3652 12.9543 14.3652 11.2139V4.75814C14.3652 3.01768 12.9543 1.60678 11.2139 1.60678H4.75814C3.01771 1.60678 1.60678 3.01768 1.60678 4.75814V11.2139C1.60678 12.9543 3.01771 14.3652 4.75814 14.3652H11.2139ZM3.85507 7.98597C3.85507 5.7082 5.7082 3.85507 7.986 3.85507C10.2638 3.85507 12.1169 5.70817 12.1169 7.98597C12.1169 10.2638 10.2638 12.1169 7.986 12.1169C5.7082 12.1169 3.85507 10.2637 3.85507 7.98597ZM5.46185 7.986C5.46185 9.38006 6.59194 10.5101 7.986 10.5101C9.38003 10.5101 10.5101 9.38003 10.5101 7.986C10.5101 6.59194 9.38006 5.46185 7.986 5.46185C6.59197 5.46185 5.46185 6.59194 5.46185 7.986ZM13.1148 3.88609C13.1148 4.43277 12.6716 4.87594 12.1249 4.87594C11.5782 4.87594 11.1351 4.43277 11.1351 3.88609C11.1351 3.33941 11.5782 2.89623 12.1249 2.89623C12.6716 2.89623 13.1148 3.33941 13.1148 3.88609Z" fill="#FF3465"/>
</svg>
