<svg width="16" height="14" viewBox="0 0 16 14" fill="none" xmlns="http://www.w3.org/2000/svg">
<path fill-rule="evenodd" clip-rule="evenodd" d="M15.7132 1.56411C15.3584 1.72143 14.9901 1.84553 14.6122 1.93538C15.0286 1.5397 15.3417 1.04479 15.5183 0.492386C15.5687 0.334683 15.3974 0.198313 15.255 0.282751C14.7293 0.594576 14.1631 0.828503 13.5719 0.978109C13.5376 0.98679 13.5022 0.991189 13.4667 0.991189C13.3591 0.991189 13.2544 0.951208 13.172 0.878644C12.5431 0.324328 11.7342 0.019043 10.8944 0.019043C10.5309 0.019043 10.164 0.0756853 9.80378 0.187413C8.6876 0.533612 7.82636 1.45433 7.55615 2.59029C7.45478 3.01638 7.42733 3.44285 7.47452 3.85784C7.47993 3.90552 7.45739 3.93881 7.44349 3.95442C7.41908 3.98179 7.38447 3.99748 7.34854 3.99748C7.34453 3.99748 7.3404 3.99728 7.33632 3.99689C4.89303 3.76989 2.68978 2.59279 1.1324 0.68244C1.05299 0.584999 0.900697 0.596951 0.837398 0.705525C0.532424 1.22874 0.371256 1.82716 0.371256 2.43609C0.371256 3.36931 0.746186 4.24877 1.39744 4.88989C1.12357 4.82496 0.858497 4.72269 0.612269 4.58593C0.493145 4.51975 0.346575 4.60481 0.344901 4.74107C0.32785 6.12742 1.13953 7.36102 2.35545 7.9165C2.33096 7.91709 2.30648 7.91736 2.28195 7.91736C2.08921 7.91736 1.89406 7.89875 1.70198 7.86204C1.56783 7.83642 1.45513 7.96369 1.49678 8.09375C1.89145 9.3259 2.95236 10.2341 4.22192 10.4403C3.16826 11.1476 1.94124 11.5207 0.664162 11.5207L0.26603 11.5205C0.143364 11.5205 0.0396165 11.6005 0.0083562 11.7193C-0.022437 11.8363 0.0342832 11.9598 0.138887 12.0206C1.57795 12.8581 3.21941 13.3007 4.88653 13.3007C6.3458 13.3007 7.71082 13.0111 8.94371 12.44C10.074 11.9165 11.0727 11.168 11.9123 10.2156C12.6944 9.32828 13.306 8.30401 13.73 7.17124C14.1342 6.09145 14.3478 4.9393 14.3478 3.83931V3.78691C14.3478 3.61028 14.4277 3.44409 14.567 3.33097C15.0959 2.90157 15.5564 2.39611 15.9358 1.82864C16.036 1.6788 15.878 1.491 15.7132 1.56411Z" fill="#ED1F5F"/>
</svg>
