<svg width="104" height="24" viewBox="0 0 104 24" fill="none" xmlns="http://www.w3.org/2000/svg">
<path d="M9.99866 23.407V7.53145H15.8258V10.4237C16.2448 9.2745 16.8461 8.4345 17.6298 7.90365C18.4136 7.37281 19.458 7.10772 20.7631 7.1084H21.3326V13.4033C21.0987 13.383 20.8739 13.3667 20.6604 13.3514C20.4468 13.3362 20.2414 13.3301 20.0502 13.3301C18.7743 13.3301 17.837 13.6172 17.2383 14.1915C16.6397 14.7657 16.3404 15.6664 16.3404 16.8935V23.402L9.99866 23.407Z" fill="#FCCD03"/>
<path d="M34.4034 18.7046H40.4491C40.0118 20.4375 39.0505 21.7494 37.565 22.6402C36.0796 23.5311 34.1203 23.9765 31.6871 23.9765C28.961 23.9765 26.7969 23.2195 25.1949 21.7056C23.5928 20.1917 22.7922 18.1545 22.7928 15.5938C22.7928 12.9267 23.6105 10.8212 25.2457 9.27751C26.881 7.73378 29.1057 6.96191 31.92 6.96191C34.7437 6.96191 36.9566 7.80191 38.5586 9.48191C40.1606 11.1619 40.9613 13.4928 40.9606 16.4745V16.8548L29.1162 16.869C29.1461 17.8819 29.4139 18.6616 29.9196 19.208C30.4254 19.7545 31.1301 20.0297 32.0339 20.0338C32.644 20.0338 33.1552 19.9195 33.5674 19.6911C33.9619 19.4812 34.261 19.1282 34.4034 18.7046ZM29.1152 13.6799H34.7389C34.6711 12.6962 34.4 11.9589 33.9254 11.468C33.4508 10.9772 32.7644 10.7311 31.8661 10.7297C31.0383 10.7297 30.3834 10.9904 29.9013 11.5117C29.4193 12.0331 29.1576 12.7558 29.1162 13.6799H29.1152Z" fill="#FCCD03"/>
<path d="M54.8644 23.407L54.4699 21.8877C53.7049 22.5726 52.818 23.1077 51.8553 23.4649C50.8423 23.8176 49.7753 23.9897 48.7028 23.9734C46.9116 23.9734 45.5268 23.5327 44.5485 22.6514C43.5702 21.77 43.08 20.5273 43.078 18.9233C43.078 17.3558 43.56 16.1972 44.5241 15.4473C45.4882 14.6975 47.3089 14.1524 49.9861 13.8121C50.3251 13.7633 50.7828 13.7097 51.359 13.6514C53.355 13.4365 54.3529 12.9202 54.3529 12.1026C54.3529 11.6449 54.1706 11.3117 53.8058 11.1029C53.4411 10.8941 52.8648 10.7894 52.077 10.7887C51.4241 10.7887 50.9228 10.9175 50.5729 11.1751C50.2231 11.4327 50.0197 11.8297 49.9627 12.366H43.8C43.8299 10.5843 44.56 9.23817 45.9905 8.32766C47.4211 7.41715 49.5228 6.9619 52.2956 6.9619C53.5104 6.95281 54.7225 7.07522 55.9109 7.32698C57.0153 7.57105 57.8743 7.89715 58.4878 8.30529C59.2383 8.81173 59.7641 9.38393 60.0651 10.0219C60.3661 10.6599 60.5173 11.5727 60.5187 12.7605V21.608C60.5136 21.8789 60.5736 22.1471 60.6936 22.39C60.8102 22.6193 60.9857 22.8134 61.2021 22.9524V23.4049L54.8644 23.407ZM54.2797 16.3239C53.4907 16.6154 52.6864 16.8639 51.8705 17.0683C50.2936 17.486 49.5048 18.046 49.5041 18.7483C49.4945 18.948 49.5318 19.1471 49.6131 19.3297C49.6943 19.5123 49.8172 19.6733 49.9719 19.7999C50.2831 20.0534 50.7261 20.1799 51.3011 20.1792C52.3526 20.1792 53.1194 19.9358 53.6014 19.449C54.0834 18.9622 54.3241 18.1883 54.3234 17.1273C54.3234 16.9026 54.3234 16.7348 54.3163 16.6188C54.3124 16.5197 54.3002 16.421 54.2797 16.3239Z" fill="#FCCD03"/>
<path d="M70.6779 0.0234375V16.1695C70.1292 16.5745 69.6683 17.0866 69.3233 17.6748C68.9783 18.2631 68.7563 18.9153 68.6707 19.5919C68.5851 20.2684 68.6378 20.9554 68.8255 21.611C69.0132 22.2666 69.332 22.8773 69.7627 23.4061H64.3138V0.0234375H70.6779Z" fill="#FCCD03"/>
<path d="M3.19318 6.38344C4.94945 6.38344 6.37318 4.9597 6.37318 3.20344C6.37318 1.44717 4.94945 0.0234375 3.19318 0.0234375C1.43692 0.0234375 0.0131836 1.44717 0.0131836 3.20344C0.0131836 4.9597 1.43692 6.38344 3.19318 6.38344Z" fill="#FCCD03"/>
<path d="M83.0247 7.53174V23.4073H77.582C78.0127 22.8777 78.3313 22.2662 78.5184 21.6098C78.7056 20.9534 78.7575 20.2658 78.671 19.5887C78.5845 18.9116 78.3613 18.2592 78.015 17.6709C77.6688 17.0827 77.2066 16.5709 76.6566 16.1667V7.53174H83.0247Z" fill="white"/>
<path d="M85.7705 15.4473C85.7705 12.8182 86.5688 10.7467 88.1654 9.23276C89.762 7.71886 91.9576 6.96191 94.7522 6.96191C97.5468 6.96191 99.74 7.71886 101.332 9.23276C102.924 10.7467 103.72 12.8182 103.72 15.4473C103.72 18.0955 102.921 20.1792 101.324 21.6985C99.7264 23.2178 97.5359 23.9772 94.7522 23.9765C91.9678 23.9765 89.7746 23.2172 88.1725 21.6985C86.5705 20.1799 85.7698 18.0962 85.7705 15.4473ZM92.1529 15.4473C92.1529 16.9178 92.3563 17.9741 92.7631 18.6162C93.1698 19.2582 93.8342 19.5795 94.7563 19.5802C95.6803 19.5802 96.3498 19.2565 96.7647 18.609C97.1797 17.9616 97.3864 16.9077 97.3851 15.4473C97.3851 13.9972 97.1783 12.9531 96.7647 12.3151C96.3512 11.6772 95.6817 11.3582 94.7563 11.3582C93.8309 11.3582 93.1664 11.6745 92.7631 12.307C92.3597 12.9395 92.1563 13.9863 92.1529 15.4473Z" fill="white"/>
<path d="M79.8406 6.38344C81.5969 6.38344 83.0207 4.9597 83.0207 3.20344C83.0207 1.44717 81.5969 0.0234375 79.8406 0.0234375C78.0844 0.0234375 76.6606 1.44717 76.6606 3.20344C76.6606 4.9597 78.0844 6.38344 79.8406 6.38344Z" fill="white"/>
<path d="M74.1803 23.3625C75.9139 23.0811 77.0911 21.4477 76.8097 19.7141C76.5283 17.9805 74.8948 16.8033 73.1613 17.0847C71.4277 17.3661 70.2505 18.9996 70.5319 20.7332C70.8133 22.4667 72.4467 23.6439 74.1803 23.3625Z" fill="white"/>
<path d="M0.00915527 23.4073V7.53174H6.37729V23.4073H0.00915527Z" fill="#FCCD03"/>
</svg>
