<svg width="104" height="24" viewBox="0 0 104 24" fill="none" xmlns="http://www.w3.org/2000/svg">
<path d="M9.99866 23.4071V7.53152H15.8258V10.4237C16.2448 9.27457 16.8461 8.43457 17.6298 7.90372C18.4136 7.37288 19.458 7.10779 20.7631 7.10847H21.3326V13.4034C21.0987 13.383 20.8739 13.3668 20.6604 13.3515C20.4468 13.3363 20.2414 13.3302 20.0502 13.3302C18.7743 13.3302 17.837 13.6173 17.2383 14.1915C16.6397 14.7658 16.3404 15.6664 16.3404 16.8936V23.402L9.99866 23.4071Z" fill="#FCCD03"/>
<path d="M34.4034 18.7047H40.4491C40.0118 20.4376 39.0505 21.7495 37.565 22.6403C36.0796 23.5312 34.1203 23.9766 31.6871 23.9766C28.961 23.9766 26.7969 23.2197 25.1949 21.7058C23.5928 20.1919 22.7922 18.1546 22.7928 15.5939C22.7928 12.9268 23.6105 10.8214 25.2457 9.27763C26.881 7.7339 29.1057 6.96204 31.92 6.96204C34.7437 6.96204 36.9566 7.80204 38.5586 9.48204C40.1606 11.162 40.9613 13.4929 40.9606 16.4746V16.8549L29.1162 16.8692C29.1461 17.882 29.4139 18.6617 29.9196 19.2081C30.4254 19.7546 31.1301 20.0298 32.0339 20.0339C32.644 20.0339 33.1552 19.9197 33.5674 19.6912C33.9619 19.4813 34.261 19.1283 34.4034 18.7047ZM29.1152 13.68H34.7389C34.6711 12.6963 34.4 11.959 33.9254 11.4681C33.4508 10.9773 32.7644 10.7312 31.8661 10.7298C31.0383 10.7298 30.3834 10.9905 29.9013 11.5119C29.4193 12.0332 29.1576 12.7559 29.1162 13.68H29.1152Z" fill="#FCCD03"/>
<path d="M54.8644 23.4071L54.4699 21.8878C53.7049 22.5728 52.818 23.1078 51.8553 23.4651C50.8423 23.8178 49.7753 23.9899 48.7028 23.9736C46.9116 23.9736 45.5268 23.5329 44.5485 22.6515C43.5702 21.7702 43.08 20.5275 43.078 18.9234C43.078 17.3559 43.56 16.1973 44.5241 15.4475C45.4882 14.6976 47.3089 14.1525 49.9861 13.8122C50.3251 13.7634 50.7828 13.7098 51.359 13.6515C53.355 13.4366 54.3529 12.9203 54.3529 12.1027C54.3529 11.6451 54.1706 11.3119 53.8058 11.1031C53.4411 10.8942 52.8648 10.7895 52.077 10.7888C51.4241 10.7888 50.9228 10.9176 50.5729 11.1753C50.2231 11.4329 50.0197 11.8298 49.9627 12.3661H43.8C43.8299 10.5844 44.56 9.23831 45.9905 8.3278C47.4211 7.41729 49.5228 6.96203 52.2956 6.96203C53.5104 6.95294 54.7225 7.07535 55.9109 7.32712C57.0153 7.57119 57.8743 7.89729 58.4878 8.30542C59.2383 8.81186 59.7641 9.38407 60.0651 10.022C60.3661 10.66 60.5173 11.5729 60.5187 12.7607V21.6081C60.5136 21.8791 60.5736 22.1472 60.6936 22.3902C60.8102 22.6194 60.9857 22.8135 61.2021 22.9525V23.4051L54.8644 23.4071ZM54.2797 16.3241C53.4907 16.6155 52.6864 16.864 51.8705 17.0685C50.2936 17.4861 49.5048 18.0461 49.5041 18.7485C49.4945 18.9481 49.5318 19.1472 49.6131 19.3298C49.6943 19.5124 49.8172 19.6734 49.9719 19.8C50.2831 20.0536 50.7261 20.18 51.3011 20.1793C52.3526 20.1793 53.1194 19.9359 53.6014 19.4492C54.0834 18.9624 54.3241 18.1885 54.3234 17.1275C54.3234 16.9027 54.3234 16.7349 54.3163 16.619C54.3124 16.5198 54.3002 16.4212 54.2797 16.3241Z" fill="#FCCD03"/>
<path d="M70.6779 0.0233917V16.1695C70.1292 16.5744 69.6683 17.0865 69.3233 17.6748C68.9783 18.2631 68.7563 18.9152 68.6707 19.5918C68.5851 20.2684 68.6378 20.9553 68.8255 21.611C69.0132 22.2666 69.332 22.8773 69.7627 23.4061H64.3138V0.0233917H70.6779Z" fill="#FCCD03"/>
<path d="M3.19318 6.38339C4.94945 6.38339 6.37318 4.95966 6.37318 3.20339C6.37318 1.44713 4.94945 0.0233917 3.19318 0.0233917C1.43692 0.0233917 0.0131836 1.44713 0.0131836 3.20339C0.0131836 4.95966 1.43692 6.38339 3.19318 6.38339Z" fill="#FCCD03"/>
<path d="M83.0247 7.53152V23.4071H77.582C78.0127 22.8775 78.3313 22.266 78.5184 21.6096C78.7056 20.9531 78.7575 20.2655 78.671 19.5885C78.5845 18.9114 78.3613 18.2589 78.015 17.6707C77.6688 17.0825 77.2066 16.5707 76.6566 16.1664V7.53152H83.0247Z" fill="#00C1BC"/>
<path d="M85.7705 15.4475C85.7705 12.8183 86.5688 10.7468 88.1654 9.23288C89.762 7.71899 91.9576 6.96204 94.7522 6.96204C97.5468 6.96204 99.74 7.71899 101.332 9.23288C102.924 10.7468 103.72 12.8183 103.72 15.4475C103.72 18.0956 102.921 20.1793 101.324 21.6986C99.7264 23.218 97.5359 23.9773 94.7522 23.9766C91.9678 23.9766 89.7746 23.2173 88.1725 21.6986C86.5705 20.18 85.7698 18.0963 85.7705 15.4475ZM92.1529 15.4475C92.1529 16.918 92.3563 17.9742 92.7631 18.6163C93.1698 19.2583 93.8342 19.5797 94.7563 19.5803C95.6803 19.5803 96.3498 19.2566 96.7647 18.6092C97.1797 17.9617 97.3864 16.9078 97.3851 15.4475C97.3851 13.9973 97.1783 12.9532 96.7647 12.3153C96.3512 11.6773 95.6817 11.3583 94.7563 11.3583C93.8309 11.3583 93.1664 11.6746 92.7631 12.3071C92.3597 12.9397 92.1563 13.9864 92.1529 15.4475Z" fill="#00C1BC"/>
<path d="M79.8406 6.38339C81.5969 6.38339 83.0207 4.95966 83.0207 3.20339C83.0207 1.44713 81.5969 0.0233917 79.8406 0.0233917C78.0844 0.0233917 76.6606 1.44713 76.6606 3.20339C76.6606 4.95966 78.0844 6.38339 79.8406 6.38339Z" fill="#00C1BC"/>
<path d="M74.1803 23.3628C75.9139 23.0814 77.0911 21.4479 76.8097 19.7143C76.5283 17.9808 74.8948 16.8035 73.1613 17.0849C71.4277 17.3663 70.2505 18.9998 70.5319 20.7334C70.8133 22.467 72.4467 23.6442 74.1803 23.3628Z" fill="#00C1BC"/>
<path d="M0.00915527 23.4071V7.53152H6.37729V23.4071H0.00915527Z" fill="#FCCD03"/>
</svg>
