<svg width="16" height="16" viewBox="0 0 16 16" fill="none" xmlns="http://www.w3.org/2000/svg">
<path d="M15.7684 7.42665L10.7091 2.23745C10.4004 1.92085 9.89981 1.92085 9.59112 2.23745C9.28238 2.55413 9.28238 3.06747 9.59112 3.38414L13.3009 7.18918L1.79052 7.1622C1.35396 7.1622 1 7.52525 1 7.97301C1 8.42071 1.35396 8.78382 1.79052 8.78382L13.3009 8.8108L9.59125 12.6158C9.2825 12.9325 9.2825 13.4459 9.59125 13.7625C9.74556 13.9207 9.94793 14 10.1502 14C10.3526 14 10.5549 13.9207 10.7092 13.7625L15.7684 8.57333C16.0772 8.25666 16.0772 7.74332 15.7684 7.42665Z" fill="white"/>
</svg>
