<?xml version="1.0" encoding="utf-8"?>
<svg xmlns="http://www.w3.org/2000/svg" width="16" height="16" viewBox="0 0 16 16">
    <path fill="#787878" fill-rule="evenodd" d="M16 11.04v.109c0 1.02-.772 1.851-1.752 1.851H1.817C.837 13 0 12.168 0 11.149v-.109h16zM14.248 3C15.228 3 16 3.821 16 4.84v4.895H0V4.84C0 3.821.837 3 1.817 3zM4.345 5.382c-.348 0-.662.143-.894.375a1.257 1.257 0 0 0-.892-.375c-.713 0-1.29.6-1.29 1.343 0 .742.578 1.343 1.29 1.343.346 0 .66-.144.892-.376.232.232.546.376.894.376.712 0 1.29-.6 1.29-1.343 0-.742-.578-1.343-1.29-1.343z"/>
</svg>
