<?xml version="1.0" encoding="utf-8"?>
<svg xmlns="http://www.w3.org/2000/svg" width="16" height="16" viewBox="0 0 16 16">
    <path fill="#000" fill-opacity=".3" fill-rule="evenodd" d="M15.835 7.638l-1.289-1.114a.473.473 0 0 1-.138-.52l.56-1.607a.478.478 0 0 0-.36-.626l-1.679-.324a.476.476 0 0 1-.38-.38l-.318-1.674a.475.475 0 0 0-.626-.36l-1.607.56a.481.481 0 0 1-.519-.138L8.359.165a.478.478 0 0 0-.723 0l-1.114 1.29a.473.473 0 0 1-.519.138l-1.607-.56a.478.478 0 0 0-.626.36l-.324 1.674a.476.476 0 0 1-.38.38l-1.673.324a.475.475 0 0 0-.36.626l.56 1.608c.061.185.01.39-.139.519L.166 7.638a.479.479 0 0 0 0 .724l1.288 1.114a.473.473 0 0 1 .139.52l-.56 1.607a.478.478 0 0 0 .36.626l1.673.324c.19.036.344.185.38.38l.324 1.674c.056.288.349.457.626.36l1.607-.56a.481.481 0 0 1 .519.138l1.114 1.29c.19.22.534.22.724 0l1.114-1.29a.473.473 0 0 1 .518-.138l1.607.56a.478.478 0 0 0 .627-.36l.323-1.674a.476.476 0 0 1 .38-.38l1.674-.324a.475.475 0 0 0 .36-.626l-.56-1.608a.482.482 0 0 1 .138-.519l1.289-1.114a.475.475 0 0 0 .005-.724zm-4.354-.026l-1.576 1.33.493 2.003a.434.434 0 0 1-.647.473l-1.75-1.094-1.751 1.089a.432.432 0 0 1-.647-.473l.493-2.003-1.577-1.33a.43.43 0 0 1 .247-.76l2.053-.149.776-1.91a.432.432 0 0 1 .8 0l.776 1.91 2.054.15c.395.03.549.513.256.764z"/>
</svg>
