<?xml version="1.0" encoding="utf-8"?>
<svg xmlns="http://www.w3.org/2000/svg" width="16" height="16" viewBox="0 0 16 16">
    <path fill="#FF3465" fill-rule="nonzero" d="M10.071 1.772V3.71c0 .824.64 1.498 1.447 1.57l.144.007h.998c.824 0 1.502-.628 1.575-1.434l.006-.143V1.778a1.44 1.44 0 0 1 1.384 1.296l.007.135v11.323c0 .743-.57 1.363-1.294 1.434l-.138.006H1.445A1.438 1.438 0 0 1 .02 14.67l-.007-.138V3.21c0-.73.556-1.333 1.257-1.42l.134-.01V3.71c0 .824.632 1.498 1.437 1.57l.144.007h.998c.825 0 1.51-.628 1.584-1.434l.007-.143V1.77h4.497zm3.088 5.587H2.46a.62.62 0 0 0-.613.528l-.006.091v5.849c0 .31.229.568.527.612l.092.007h10.7a.62.62 0 0 0 .612-.528l.007-.091V7.978a.62.62 0 0 0-.619-.619zm-7.866 4.252c.175 0 .322.124.355.29l.008.073v1.265a.362.362 0 0 1-.29.355l-.073.007H4.028a.362.362 0 0 1-.355-.29l-.007-.072v-1.265c0-.176.124-.321.29-.355l.072-.008h1.265zm3.162 0c.175 0 .321.124.355.29l.007.073v1.265a.362.362 0 0 1-.289.355l-.073.007H7.19a.362.362 0 0 1-.355-.29l-.007-.072v-1.265c0-.176.124-.321.289-.355l.073-.008h1.265zm3.162 0c.175 0 .321.124.355.29l.007.073v1.265a.362.362 0 0 1-.289.355l-.073.007h-1.265a.363.363 0 0 1-.355-.29l-.008-.072v-1.265c0-.176.125-.321.29-.355l.073-.008h1.265zM5.293 8.45c.175 0 .322.124.355.289l.008.073v1.265a.363.363 0 0 1-.29.355l-.073.007H4.028a.362.362 0 0 1-.355-.29l-.007-.072V8.812c0-.175.124-.321.29-.355l.072-.007h1.265zm3.162 0c.175 0 .321.124.355.289l.007.073v1.265a.363.363 0 0 1-.289.355l-.073.007H7.19a.362.362 0 0 1-.355-.29l-.007-.072V8.812c0-.175.124-.321.289-.355l.073-.007h1.265zm3.162 0c.175 0 .321.124.355.289l.007.073v1.265a.363.363 0 0 1-.29.355l-.072.007h-1.265a.363.363 0 0 1-.355-.29l-.008-.072V8.812c0-.175.125-.321.29-.355l.073-.007h1.265zM2.982 0h.987c.27 0 .493.197.535.454l.007.088V3.71c0 .27-.197.493-.454.535l-.088.007h-.987a.542.542 0 0 1-.536-.454L2.44 3.71V.542c0-.27.197-.493.455-.535L2.982 0h.987zm9.654 0c.3 0 .543.243.543.542V3.71c0 .3-.243.542-.543.542h-.987a.542.542 0 0 1-.542-.542V.542c0-.3.243-.542.542-.542z"/>
</svg>
