<?xml version="1.0" encoding="utf-8"?>
<svg xmlns="http://www.w3.org/2000/svg" width="16" height="16" viewBox="0 0 16 16">
    <path fill="#FF3465" fill-rule="nonzero" d="M8 6.382c-.778 0-1.406.74-1.406 1.655S7.222 9.69 8 9.69c.778 0 1.406-.739 1.406-1.654 0-.916-.628-1.655-1.406-1.655zm0 0c-.778 0-1.406.74-1.406 1.655S7.222 9.69 8 9.69c.778 0 1.406-.739 1.406-1.654 0-.916-.628-1.655-1.406-1.655zm0 0c-.778 0-1.406.74-1.406 1.655S7.222 9.69 8 9.69c.778 0 1.406-.739 1.406-1.654 0-.916-.628-1.655-1.406-1.655zM14.21 3c-.235.816.074 1.544.515 1.908.31.254.769.386 1.275.199V3h-1.79zM8 6.382c-.778 0-1.406.74-1.406 1.655S7.222 9.69 8 9.69c.778 0 1.406-.739 1.406-1.654 0-.916-.628-1.655-1.406-1.655zm0 0c-.778 0-1.406.74-1.406 1.655S7.222 9.69 8 9.69c.778 0 1.406-.739 1.406-1.654 0-.916-.628-1.655-1.406-1.655zm0 0c-.778 0-1.406.74-1.406 1.655S7.222 9.69 8 9.69c.778 0 1.406-.739 1.406-1.654 0-.916-.628-1.655-1.406-1.655zm6.181-.58C13.394 5.15 13.047 4.07 13.234 3H2.766c.168.993-.141 1.92-.638 2.504-.605.695-1.467.933-2.128.75v3.492c.91-.22 1.828.188 2.381 1.114.347.574.516 1.335.385 2.14h10.468c-.14-.893.085-1.72.497-2.316.507-.728 1.36-1.147 2.269-.938V6.254c-.723.15-1.336-.04-1.819-.453zM4.72 8.587H3.78V7.485h.938v1.103zM8 10.794c-1.294 0-2.344-1.235-2.344-2.757S6.706 5.279 8 5.279c1.294 0 2.344 1.236 2.344 2.758S9.294 10.794 8 10.794zm4.219-2.206h-.938V7.485h.938v1.103zM8 6.382c-.778 0-1.406.74-1.406 1.655S7.222 9.69 8 9.69c.778 0 1.406-.739 1.406-1.654 0-.916-.628-1.655-1.406-1.655zm6.453 5.008c-.29.408-.412.981-.244 1.61H16v-2.118c-.647-.231-1.219.044-1.547.508zM8 6.382c-.778 0-1.406.74-1.406 1.655S7.222 9.69 8 9.69c.778 0 1.406-.739 1.406-1.654 0-.916-.628-1.655-1.406-1.655zm0 0c-.778 0-1.406.74-1.406 1.655S7.222 9.69 8 9.69c.778 0 1.406-.739 1.406-1.654 0-.916-.628-1.655-1.406-1.655zm0 0c-.778 0-1.406.74-1.406 1.655S7.222 9.69 8 9.69c.778 0 1.406-.739 1.406-1.654 0-.916-.628-1.655-1.406-1.655zm0 0c-.778 0-1.406.74-1.406 1.655S7.222 9.69 8 9.69c.778 0 1.406-.739 1.406-1.654 0-.916-.628-1.655-1.406-1.655zM1.622 11.5c-.31-.518-.928-.882-1.622-.618V13h1.79c.16-.596.047-1.136-.168-1.5zM1.79 3H0v2.107c.59.231 1.125.022 1.462-.386.338-.397.516-1.026.329-1.721z"/>
</svg>
