<?xml version="1.0" encoding="utf-8"?>
<svg xmlns="http://www.w3.org/2000/svg" width="24" height="24" viewBox="0 0 24 24">
    <g fill="#FF3465" fill-rule="nonzero">
        <path fill-opacity=".15" d="M12 0c6.627 0 12 5.373 12 12s-5.373 12-12 12S0 18.627 0 12 5.373 0 12 0z"/>
        <path d="M16.231 9.366a.407.407 0 0 1 .538.61l-4.505 3.97a.405.405 0 0 1-.538 0L7.22 9.976a.407.407 0 1 1 .539-.61l4.236 3.733 4.236-3.733zm1.083-1.73c.673 0 1.221.548 1.221 1.221v6.458c0 .673-.548 1.22-1.22 1.22H6.674c-.673 0-1.22-.547-1.22-1.22V8.857c0-.673.547-1.22 1.22-1.22h10.64zm.407 7.679V8.857a.407.407 0 0 0-.407-.407H6.675a.407.407 0 0 0-.407.407v6.458c0 .224.183.407.407.407h10.64a.408.408 0 0 0 .406-.407z"/>
    </g>
</svg>
