<?xml version="1.0" encoding="utf-8"?>
<svg xmlns="http://www.w3.org/2000/svg" width="16" height="16" viewBox="0 0 16 16">
    <path fill="#FF3465" fill-rule="nonzero" d="M7.425 15.992c0-2.396-4.01-6.405-6.405-6.405 2.396 0 6.405-4.009 6.405-6.404 0 2.395 4.01 6.404 6.404 6.404-2.395 0-6.404 4.01-6.404 6.405zm4.465-8.927c0-1.154-1.931-3.085-3.085-3.085 1.154 0 3.085-1.932 3.085-3.085 0 1.153 1.931 3.085 3.085 3.085-1.154 0-3.085 1.931-3.085 3.085zm-8.988 8.697c0-.595-.995-1.59-1.59-1.59.595 0 1.59-.994 1.59-1.588 0 .594.994 1.589 1.589 1.589-.595 0-1.59.995-1.59 1.589zM4.952 4.41c0-.825-1.381-2.205-2.206-2.205.825 0 2.205-1.38 2.205-2.205 0 .825 1.38 2.205 2.205 2.205-.824 0-2.205 1.38-2.205 2.205z"/>
</svg>
