<?xml version="1.0" encoding="utf-8"?>
<svg xmlns="http://www.w3.org/2000/svg" width="16" height="16" viewBox="0 0 16 16">
    <path fill="#FF3465" fill-rule="nonzero" d="M13.417 0H2.09A2.09 2.09 0 0 0 0 2.09v11.327a2.09 2.09 0 0 0 2.09 2.09h5.586l.01-5.541h-1.44a.34.34 0 0 1-.34-.339L5.9 7.841a.34.34 0 0 1 .34-.34h1.437V5.773c0-2.003 1.223-3.093 3.01-3.093h1.466a.34.34 0 0 1 .34.34v1.505a.34.34 0 0 1-.34.34h-.9c-.972 0-1.16.462-1.16 1.14V7.5h2.135a.34.34 0 0 1 .338.38l-.212 1.786a.34.34 0 0 1-.337.3h-1.914l-.01 5.541h3.324a2.09 2.09 0 0 0 2.09-2.09V2.09A2.09 2.09 0 0 0 13.417 0z"/>
</svg>
