<?xml version="1.0" encoding="utf-8"?>
<svg xmlns="http://www.w3.org/2000/svg" width="16" height="16" viewBox="0 0 16 16">
    <path fill="#FF3465" fill-rule="nonzero" d="M10.874 0a4.62 4.62 0 0 1 4.614 4.614v6.26a4.62 4.62 0 0 1-4.614 4.614h-6.26A4.62 4.62 0 0 1 0 10.874v-6.26A4.62 4.62 0 0 1 4.614 0h6.26zm3.056 10.874v-6.26a3.056 3.056 0 0 0-3.056-3.056h-6.26a3.056 3.056 0 0 0-3.056 3.056v6.26a3.056 3.056 0 0 0 3.056 3.056h6.26a3.056 3.056 0 0 0 3.056-3.056zM7.744 3.738a4.01 4.01 0 0 1 4.006 4.006 4.01 4.01 0 0 1-4.006 4.006 4.01 4.01 0 0 1-4.006-4.006 4.01 4.01 0 0 1 4.006-4.006zm0 6.454a2.448 2.448 0 1 0 0-4.896 2.448 2.448 0 0 0 0 4.896zm4.014-5.464a.96.96 0 1 1 0-1.92.96.96 0 0 1 0 1.92z"/>
</svg>
