<?xml version="1.0" encoding="utf-8"?>
<svg xmlns="http://www.w3.org/2000/svg" width="16" height="16" viewBox="0 0 16 16">
    <path fill="#FF3465" fill-rule="nonzero" d="M8 0c1.44 0 2.774.36 4 1.08A8.084 8.084 0 0 1 14.92 4 7.755 7.755 0 0 1 16 8c0 1.44-.36 2.774-1.08 4A8.084 8.084 0 0 1 12 14.92 7.755 7.755 0 0 1 8 16c-1.44 0-2.774-.36-4-1.08A8.084 8.084 0 0 1 1.08 12 7.755 7.755 0 0 1 0 8c0-1.44.36-2.774 1.08-4A8.084 8.084 0 0 1 4 1.08 7.755 7.755 0 0 1 8 0zm0 3.548c-.366 0-.683.135-.952.404a1.301 1.301 0 0 0-.403.951c0 .366.135.683.403.952.27.269.586.403.952.403s.683-.134.952-.403c.268-.269.403-.586.403-.952 0-.365-.135-.683-.403-.951A1.301 1.301 0 0 0 8 3.548zm1.806 8.194v-.774a.373.373 0 0 0-.112-.274.373.373 0 0 0-.275-.113h-.387V7.355a.373.373 0 0 0-.113-.274.373.373 0 0 0-.274-.113H6.581a.373.373 0 0 0-.275.113.373.373 0 0 0-.112.274v.774c0 .108.037.199.112.274a.373.373 0 0 0 .275.113h.387v2.065H6.58a.373.373 0 0 0-.275.113.373.373 0 0 0-.112.274v.774c0 .107.037.199.112.274a.373.373 0 0 0 .275.113h2.838a.373.373 0 0 0 .275-.113.373.373 0 0 0 .112-.274z"/>
</svg>
