<?xml version="1.0" encoding="utf-8"?>
<svg xmlns="http://www.w3.org/2000/svg" width="16" height="16" viewBox="0 0 16 16">
    <path fill="#FF3465" fill-rule="nonzero" d="M14.112 0H1.403C.628 0 0 .628 0 1.403v12.709c0 .775.628 1.403 1.403 1.403h12.709c.775 0 1.403-.628 1.403-1.403V1.403C15.515.628 14.887 0 14.112 0zM4.8 13.397a.408.408 0 0 1-.408.408H2.654a.408.408 0 0 1-.408-.408V6.109c0-.226.182-.409.408-.409h1.739c.225 0 .408.183.408.409v7.288zM3.523 5.013a1.652 1.652 0 1 1 0-3.303 1.652 1.652 0 0 1 0 3.303zm10.364 8.417a.376.376 0 0 1-.376.375h-1.865a.376.376 0 0 1-.376-.375V10.01c0-.51.15-2.235-1.333-2.235-1.15 0-1.383 1.181-1.43 1.71v3.944a.376.376 0 0 1-.375.375H6.328a.376.376 0 0 1-.376-.375V6.076c0-.208.168-.376.376-.376h1.804c.207 0 .376.168.376.376v.636c.426-.64 1.06-1.134 2.409-1.134 2.987 0 2.97 2.79 2.97 4.324v3.528z"/>
</svg>
