<?xml version="1.0" encoding="utf-8"?>
<svg xmlns="http://www.w3.org/2000/svg" xmlns:xlink="http://www.w3.org/1999/xlink" width="24" height="24" viewBox="0 0 24 24">
    <defs>
        <path id="a" d="M.004.02h8.714v11.312H.004z"/>
    </defs>
    <g fill="none" fill-rule="evenodd">
        <path fill="#FF3465" fill-opacity=".15" fill-rule="nonzero" d="M12 0c6.627 0 12 5.373 12 12s-5.373 12-12 12S0 18.627 0 12 5.373 0 12 0z"/>
        <g transform="translate(7.636 6.545)">
            <mask id="b" fill="#fff">
                <use xlink:href="#a"/>
            </mask>
            <path fill="#FF3465" fill-rule="nonzero" d="M4.36.02a4.364 4.364 0 0 1 4.358 4.36c0 1.718-.719 3.455-2.08 5.025-1.016 1.172-2.023 1.836-2.065 1.864a.39.39 0 0 1-.428 0c-.042-.028-1.05-.692-2.065-1.864C.72 7.835 0 6.098 0 4.38A4.364 4.364 0 0 1 4.36.02zm0 10.442c.8-.598 3.577-2.897 3.577-6.082A3.582 3.582 0 0 0 4.359.802 3.582 3.582 0 0 0 .782 4.38c0 3.185 2.775 5.484 3.577 6.082zm0-7.813c.953 0 1.73.776 1.73 1.73s-.777 1.73-1.73 1.73c-.955 0-1.73-.776-1.73-1.73s.775-1.73 1.73-1.73zm0 2.679a.95.95 0 1 0-.003-1.9.95.95 0 0 0 .002 1.9z" mask="url(#b)"/>
        </g>
    </g>
</svg>
