<?xml version="1.0" encoding="utf-8"?>
<svg xmlns="http://www.w3.org/2000/svg" width="16" height="16" viewBox="0 0 16 16">
    <path fill="#FF3465" fill-rule="nonzero" d="M8 0a8 8 0 1 0 0 16A8 8 0 0 0 8 0zM1.829 5.855L5.888 7.67l1.271.558.943.428.772.329a.612.612 0 0 1 .214.486c0 .286-.098.49-.293.614a1.292 1.292 0 0 1-.707.186c-.667 0-1.262-.243-1.786-.729l-1.1 1.114c.733.629 1.543.948 2.428.957v1.23h.929v-1.23a2.626 2.626 0 0 0 1.436-.55c.404-.319.66-.73.764-1.235l2.965 1.32A6.533 6.533 0 1 1 1.83 5.855zm8.43 2.03l-1.286-.57-.7-.315-1.014-.457a.341.341 0 0 1-.072-.2c0-.228.098-.39.293-.486a1.49 1.49 0 0 1 .665-.143c.466 0 .924.158 1.371.472l1.043-1.072a3.536 3.536 0 0 0-2-.742V3.143H7.63v1.229a2.53 2.53 0 0 0-1.3.42A1.876 1.876 0 0 0 5.573 5.8L2.527 4.434A6.533 6.533 0 0 1 14.31 9.693l-4.052-1.807z"/>
</svg>
