<?xml version="1.0" encoding="utf-8"?>
<svg xmlns="http://www.w3.org/2000/svg" width="16" height="16" viewBox="0 0 16 16">
    <path fill="#000" fill-rule="evenodd" d="M16 8c0 1.44-.36 2.774-1.08 4A8.084 8.084 0 0 1 12 14.92 7.755 7.755 0 0 1 8 16c-1.44 0-2.774-.36-4-1.08A8.084 8.084 0 0 1 1.08 12 7.755 7.755 0 0 1 0 8c0-1.44.36-2.774 1.08-4A8.084 8.084 0 0 1 4 1.08 7.755 7.755 0 0 1 8 0c1.44 0 2.774.36 4 1.08A8.084 8.084 0 0 1 14.92 4 7.755 7.755 0 0 1 16 8zM8.226 2.645c-.86 0-1.602.183-2.226.549-.58.322-1.097.828-1.548 1.516-.065.086-.086.177-.065.274a.407.407 0 0 0 .161.242l1.13.839c.064.064.15.09.257.08A.353.353 0 0 0 6.194 6c.344-.409.612-.688.806-.839a1.731 1.731 0 0 1 1.032-.322c.366 0 .705.102 1.016.306.312.204.468.457.468.758 0 .237-.097.441-.29.613-.13.108-.377.269-.742.484l-.065.032c-.537.301-.914.57-1.129.807a2.04 2.04 0 0 0-.58 1.451v.13c0 .107.037.198.113.274a.373.373 0 0 0 .274.112h1.806a.373.373 0 0 0 .274-.112.373.373 0 0 0 .113-.275v-.032c0-.172.086-.322.258-.452.108-.086.312-.215.613-.387.56-.344.957-.645 1.194-.903.408-.451.613-1.021.613-1.71 0-.602-.183-1.155-.549-1.66A3.84 3.84 0 0 0 10 3.08a3.927 3.927 0 0 0-1.774-.436zm-.226 8a1.43 1.43 0 0 0-1.048.436c-.29.29-.436.64-.436 1.048 0 .409.145.758.436 1.048.29.29.64.436 1.048.436a1.43 1.43 0 0 0 1.048-.436c.29-.29.436-.64.436-1.048a1.43 1.43 0 0 0-.436-1.048A1.43 1.43 0 0 0 8 10.645z"/>
</svg>
