<?xml version="1.0" encoding="utf-8"?>
<svg xmlns="http://www.w3.org/2000/svg" width="16" height="16" viewBox="0 0 16 16">
    <path fill="#FFF" fill-rule="evenodd" d="M12.732 0a2.946 2.946 0 0 1 2.945 2.946v6.411a2.946 2.946 0 0 1-2.945 2.946H8.6a.12.12 0 0 0-.088.038l-3.319 3.528a.413.413 0 0 1-.713-.283v-3.162a.12.12 0 0 0-.121-.121H2.956A2.946 2.946 0 0 1 .01 9.357V2.946A2.946 2.946 0 0 1 2.956 0zM8.445 3.823l-.422.422c-.101.1-.264.1-.365 0l-.416-.416a1.915 1.915 0 0 0-2.58-.117l-.128.117a1.915 1.915 0 0 0 0 2.709l3.124 3.124c.1.1.264.1.365 0l3.13-3.131a1.915 1.915 0 0 0 .118-2.58l-.118-.128a1.915 1.915 0 0 0-2.708 0z"/>
</svg>
